<?xml version="1.0" encoding="UTF-8" standalone="no"?>
<svg xmlns="http://www.w3.org/2000/svg" xmlns:xlink="http://www.w3.org/1999/xlink" fill="#000000" height="180.9" preserveAspectRatio="xMidYMid meet" version="1" viewBox="-5.6 -0.0 356.3 180.9" width="356.3" zoomAndPan="magnify">
    <g>
        <linearGradient gradientUnits="userSpaceOnUse" id="a" x1="162.811" x2="171.616" xlink:actuate="onLoad" xlink:show="other" xlink:type="simple" y1="2.341" y2="2.341">
            <stop offset="0" stop-color="#e23618" />
            <stop offset="0.998" stop-color="#ffc331" />
        </linearGradient>
        <path d="M163.65,3.17c3.16-0.7,3.04-0.82,6.27-0.4c0.59-0.57,2.29-0.57,1.48-0.89 c-1.79,0.58-6.71,0.02-7.17-0.37C164.17,2.5,161.49,2.65,163.65,3.17z" fill="url(#a)" />
        <linearGradient gradientUnits="userSpaceOnUse" id="b" x1="152.586" x2="158.512" xlink:actuate="onLoad" xlink:show="other" xlink:type="simple" y1="0.76" y2="0.76">
            <stop offset="0" stop-color="#e23618" />
            <stop offset="0.998" stop-color="#ffc331" />
        </linearGradient>
        <path d="M155.02,1.15c-0.64,0.03-1.22,0.03-0.66-0.27c1.85-0.1,3.12-0.43,4.15-0.87 c-1.82,0.28-5.22-0.04-5.93,0.68C154.16,0.53,152.62,2.26,155.02,1.15z" fill="url(#b)" />
        <linearGradient gradientUnits="userSpaceOnUse" id="c" x1="0" x2="350.572" xlink:actuate="onLoad" xlink:show="other" xlink:type="simple" y1="90.73" y2="90.73">
            <stop offset="0" stop-color="#e23618" />
            <stop offset="0.998" stop-color="#ffc331" />
        </linearGradient>
        <path d="M194.98,7.78c1.93,0.55,1.01,0.18,2.27-0.34c1.25,0.73,2.3,1.55,3.15,2.43 c0.86,0.87,1.51,1.8,1.99,2.73c0.94,1.87,1.19,3.67,0.75,5.75c-0.33-1.69-0.7-2.88-0.98-3.83c-0.15-0.46-0.28-0.88-0.4-1.26 c-0.13-0.36-0.25-0.72-0.38-1.05c-0.27-0.65-0.58-1.26-1.09-1.91c-0.52-0.65-1.23-1.33-2.36-2.01c-0.72,0.05-0.36,0.38-0.09,0.77 c0.27,0.36,0.47,0.73-0.53,0.62C195.98,8.74,195.28,8.25,194.98,7.78z M176.05,1.2c1.04,0.22,2,0.45,2.91,0.68 c0.9,0.23,1.76,0.45,2.59,0.66c0.41,0.11,0.82,0.21,1.22,0.31c0.36,0.11,0.65,0.23,0.97,0.34c1.27,0.45,2.53,0.85,3.96,1.19 c0.71,0.17,1.46,0.33,2.26,0.47c0.81,0.14,1.64,0.27,2.49,0.42c-0.37-0.12-0.73-0.25-1.09-0.37c-0.38-0.12-0.75-0.24-1.12-0.35 c-0.73-0.24-1.43-0.48-2.11-0.73c-1.34-0.51-2.65-1-3.95-1.49c-0.15-0.06-0.36-0.11-0.57-0.17l-0.63-0.15l-1.29-0.3 c-0.87-0.19-1.77-0.37-2.71-0.53s-1.93-0.3-2.97-0.41c-0.52-0.06-1.06-0.1-1.62-0.14c-0.28-0.02-0.56-0.03-0.85-0.05 c-0.3-0.01-0.71,0.03-1.07,0.05c0.88-0.01,1.38,0.13,1.95,0.23C174.98,0.98,175.52,1.09,176.05,1.2z M189.97,5.94 c0.85,0.21,1.78,0.72,2.45,0.58c-0.16-0.37-0.92-0.73-1.83-0.94c-0.93-0.22-2.1-0.33-2.85-0.29c0.06,0.1,0.07,0.42,0.29,0.64 c0.23,0.23,0.68,0.36,1.54,0.18C189.28,6.03,189.31,5.79,189.97,5.94z M61.61,17.45c3.3-0.94,4.78-1.04,6.1-1.75 c-1.92,0.5-2.49,0.11-3.24-0.17c0.43-0.1,0.84-0.45-0.05-0.3c0.06,0.4-1.31,0.59-1.44,0.97C66.96,15.96,58.5,17.81,61.61,17.45z M76.46,20.57c2.53-0.16,0.43-1.1,2.96-1.25c-0.05,0.97-1.03,1.67-2.52,2.22c-1.49,0.55-3.48,0.93-5.54,1.34 c-4.12,0.8-8.57,1.4-9.83,2.74c2.68-0.37,6.1-1.07,9.04-2.48c2.13,0.22-1.87,1.28,0.25,1.5c0.81-0.18,1.9-0.6,0.71-0.48 c-0.46,0.09-0.9,0.16-0.8-0.13c3.93-0.53,0.65-1.06,2.12-1.44c1.66-0.09,4.96,0.5,6.23-0.41c-1.97-0.38,6.15-1.12,2.1-1.69 c0.76-0.16,0.87-0.44,1.48-0.63c1.41,0.73,3.25,0.37,0.76-0.16c0.9-0.15,2.16-0.48,2.33-0.15c0.67,0.71-1.43,0.9-1.36,1.5 c3.79-1.13,4.99-0.92,7.59-1.77c1.14,0.49-1.82,1.51,0.16,1.2c1.58-1.14,0.71-0.91,1.36-2.11c-0.72-0.03-1.49-0.06-2.28-0.09 c-0.76-0.02-1.54-0.03-2.3-0.05c-1.52-0.04-3-0.11-4.2-0.34c-0.5,1.09-0.56,0.75,0.94,1.05c-2.36-0.16-3.71,1.19-4.68,0.34 c2.87,0.06,0.41-0.46,0.59-1.37c-2.8,1.06-2.23,0.99-6.08,1.62C75.19,20.6,78.32,19.36,76.46,20.57z M123.44,4.26 c-1.62,0.19-4.5,0.66-2.53,0.64c3.31-0.72,7.01-1.45,9.95-2.11c-0.23-0.06-0.82-0.08-1.61-0.08c-0.4,0.01-0.83,0.01-1.31,0.05 c-0.48,0.04-1,0.09-1.51,0.15c-2.07,0.23-4.21,0.58-4.92,1C122.93,3.74,124.23,3.63,123.44,4.26z M91.35,11.8 c0.1,0,0.22-0.01,0.34-0.03c0.17-0.03,0.36-0.06,0.56-0.1c0.41-0.08,0.83-0.18,1.34-0.29c1.97-0.44,4.31-1.05,4.93-1.28 c-1.75,0.34-3.08,0.38-4.32,0.49c-0.62,0.06-1.21,0.14-1.76,0.27c-0.28,0.07-0.56,0.15-0.84,0.25c-0.22,0.09-0.41,0.19-0.61,0.32 C90.77,11.71,90.95,11.81,91.35,11.8z M102.06,8.59c-1.26-0.21-2.95,0.2-4.6,0.61c-1.65,0.41-3.28,0.8-4.63,0.64 C91.72,11.04,101.4,9.12,102.06,8.59z M76.25,14.1c3.74-1.11,5.53-0.81,6.87-2.08C80.63,12.65,76.36,13.05,76.25,14.1z M201.28,36.31c0.55-0.63,1.1-1.45,1.52-2.24c0.41-0.79,0.67-1.55,0.69-2c-0.28,0.3-0.93,1.34-1.49,2.28 C201.44,35.3,200.98,36.16,201.28,36.31z M260.01,127.84c0.29-1.65,3.66-1.15,5.66-2.66c-4.86,0.99,3.68-1.2,0.62-0.78 c-4.46,0.81-5.14,2.72-8.71,2.79C257.59,127.96,258.88,127.85,260.01,127.84z M196.91,66.58c-0.32,0.04-0.69,0.07-1.1,0.09 c-0.42,0.03-0.88,0.07-1.38,0.12c-0.99,0.07-2.12,0.12-3.34,0.16c-2.44,0.1-5.19,0.02-7.92,0.28c-2.71,0.19-5.32,0.37-7.32,0.58 c-1.05,0.11-1.75,0.25-2.31,0.38c-0.38,0.11-0.61,0.22-0.69,0.36c0.33-0.06,0.69-0.12,1.05-0.18c0.48-0.08,0.97-0.15,1.58-0.22 c1.16-0.11,2.37-0.23,3.54-0.34c2.34-0.21,4.55-0.37,6.1-0.43c1.54-0.04,2.39,0.08,2.08,0.22c-0.16,0.08-0.6,0.17-1.41,0.29 c-0.81,0.14-1.98,0.36-3.56,0.6c0.04-0.31,1.22-0.48,1.55-0.76c-2.51,0.07-5.67,0.46-7.68,0.86c-0.5,0.1-0.95,0.21-1.27,0.31 c-0.29,0.1-0.5,0.2-0.61,0.28c-0.2,0.17,0,0.28,0.84,0.3c2.3-0.76,5.14-0.86,8.09-1.05c0.74-0.05,1.49-0.1,2.24-0.17 c0.75-0.05,1.5-0.07,2.27-0.14c1.53-0.14,3.08-0.38,4.7-0.83c0.64,0.08,1.72,0.17,2.85,0.27c1.12,0.14,2.28,0.34,3.14,0.51 c1.72,0.36,2.21,0.72-1.24,0.99c-2.31-0.08-2.2-0.29-1.84-0.5c0.35-0.19,0.97-0.43-0.45-0.45c0.01,0.48-0.91,0.32-1.92,0.18 c-1.01-0.14-2.12-0.26-2.38,0.29c1.05,0.03,2.74-0.1,2.66,0.21c-2.8,0.45-4.34,0.42-5.98,0.31c-1.63-0.15-3.4-0.18-6.49,0.13 c-2.43,0.42-2.41,1.15-4.29,1.63c-0.3-0.21-0.01-0.61-1.36-0.47c0.25,0.31,0.19,0.46,0,0.54c-0.19,0.08-0.52,0.08-0.88,0.06 l-0.27-0.01l-0.19-0.02c-0.13-0.01-0.25-0.02-0.35-0.01c-0.21,0.02-0.35,0.1-0.34,0.32c0.34,0.01,0.65,0.02,0.95,0.02 c0.41-0.02,0.79-0.04,1.14-0.06c0.77-0.05,1.43-0.1,1.98-0.16c1.11-0.13,1.86-0.31,2.57-0.48c0.71-0.17,1.39-0.33,2.34-0.4 c0.95-0.06,2.19-0.11,3.95,0.1c0.3-0.37-0.01-0.86,1.6-0.98c0.95,0.16,3.02,0.21,5.58,0.18c0.64,0,1.32-0.03,1.99-0.02 c0.68,0.02,1.37,0.03,2.07,0.05c1.41,0.03,2.87,0.04,4.29,0.04c0.72-0.01,1.42-0.01,2.11-0.02c0.7-0.02,1.32,0.04,1.95,0.05 c1.24,0.04,2.38,0.05,3.35,0.04c1.81-0.03,3-0.16,3.07-0.43c-0.35,0.42-7.33-0.13-6.47-0.56c0.6-0.59,3.95-0.67,6.88-0.76 c0.74-0.03,1.45-0.05,2.07-0.08c0.62-0.02,1.11,0,1.51-0.03c0.79-0.06,1.1-0.23,0.55-0.61c-1.2-0.05-3.01,0.09-4.89,0.12 c-1.89,0.04-3.93,0.05-5.85-0.01C201.79,67.33,198.17,67.25,196.91,66.58z M327.16,115.02c0.54-0.24,1.43-0.45,1.38-0.74 c-1.94,0.6-4.14,1.38-5.18,1.26c0.56,0.87,5.05,0.48,6.2-0.3C328.8,115.12,326.85,115.96,327.16,115.02z M229.95,71.93 c0.14,0.05,0.26,0.1,0.39,0.14c0.1,0.06,0.2,0.11,0.29,0.16c0.77,0.41,1.5,0.69,3.23,1.47c1.39,1.87,0.17,1.27-1.81,1.25 c1.5,0.85,2.16,1.13,2.71,1.4c0.49,0.3,0.88,0.58,1.77,1.55c0.26-0.72,0.16-1.21,0.34-1.45c0.18-0.24,0.66-0.25,2.03,0.08 c-0.39-0.41-0.77-0.78-1.15-1.12c-0.38-0.33-0.71-0.64-1.14-0.89c-0.81-0.51-1.52-0.95-2.15-1.35c-1.26-0.8-2.14-1.46-2.62-2.37 c-3.07-0.54-1.63,0.45-5.6-0.37c1.23,0.51,2.1,0.87,2.78,1.15C229.38,71.71,229.68,71.82,229.95,71.93z M262.95,123.04 c0.1-0.76,2.14-1.24,2.7-1.93c-1.48,0.95-6.01,1.45-7.22,2.42C260.72,122.83,261.39,123.26,262.95,123.04z M222.98,69.46 c0.26,0.02,0.44,0.07,0.63,0.08c0.37,0.03,0.67-0.01,0.86-0.14c-0.37-0.08-0.66-0.17-0.9-0.27c-0.24-0.1-0.5-0.15-0.67-0.24 c-0.37-0.17-0.56-0.36-0.75-0.54c-0.37-0.34-0.69-0.59-2.16-0.26c0.74,0.15,1.43,0.3,0.97,0.49c-1.54-0.23-3.01-0.43-3,0.12 c1.51,0.28,2.98,0.55,4.18,0.68C222.44,69.42,222.72,69.44,222.98,69.46z M205.09,24.89c0.08-0.65,0.21-2.54,0.04-4.01 c-0.17-1.46-0.46-2.4-0.44-1.02c0.47,1.89,0.16,2.49-0.12,2.98c-0.31,0.48-0.62,0.88-0.71,2.23 C204.69,25.03,204.6,23.64,205.09,24.89z M187.01,46.48c-1.63,1.27-0.02,1.16-0.25,1.86C188.76,46.8,188.94,45.63,187.01,46.48z M199.73,34.79c0.5-0.73,0.62-0.4,0.73-0.06c0.35-0.92,1.37-2.48,2-3.73c0.64-1.25,0.97-2.14,0.37-1.42 c-0.31,1.05-1.08,2.29-1.82,3.28C200.27,33.83,199.62,34.59,199.73,34.79z M67.1,25.83c-1.65,0.82-2.98-0.09-3.03,0.72 c0.47-0.09,0.9-0.17,0.81,0.12C55.47,27.99,64.25,28.03,67.1,25.83z M201.24,26.23c-0.38,1.26-0.45,1.79-0.34,2.13 c0.1,0.32,0.37,0.42,0.51,0.71c0.17-0.7,0.39-1.07,0.6-1.38c0.22-0.3,0.45-0.52,0.64-0.92c-0.06-0.4-0.01-1.65-0.04-2.92 c-0.01-1.26-0.13-2.53,0.09-2.74c0.14,0.65,0.09,1.68,0.38,1.66c0.02-0.93-0.1-1.6-0.31-2.01c-0.2-0.4-0.47-0.53-0.78-0.39 c0.03,1.65,0.24,3.31,0.22,4.42C202.19,25.91,202,26.53,201.24,26.23z M68.14,22.78c2.76-0.16,3.36-0.99,6.13-1.11 C74.87,20.43,68.43,22.27,68.14,22.78z M68.83,104.49c0.06-0.09,0.14-0.18,0.22-0.26C68.91,104.31,68.82,104.41,68.83,104.49z M301.17,153.55c1.78-0.5,2.33-0.11,4.58-0.95C306.61,151.35,301.09,153.08,301.17,153.55z M98.9,17.02 c-1.15-0.1-2.64-0.17-2.71-0.69c-0.67,0.97-0.2,1.4,0.86,1.55c0.7,0.1,1.66,0.06,2.77-0.03C100.84,17.25,100.04,17.12,98.9,17.02z M158.4,61.75C158.8,61.74,158.75,61.67,158.4,61.75L158.4,61.75z M182.64,151.9c-0.4-1.08-0.85-2.23-1.14-3.35 c-0.29-1.13-0.61-2.24-0.79-3.19c-0.2-0.96-0.37-1.79-0.55-2.4c-0.17-0.6-0.32-0.97-0.52-1.03c0.19,2.21,0.63,4.74,1.25,6.69 C181.5,150.56,182.25,151.91,182.64,151.9z M218.27,180.41c-0.51-0.06-1.03-0.11-1.56-0.17c-0.54-0.08-1.09-0.15-1.65-0.23 c-0.28-0.04-0.57-0.09-0.86-0.13c-0.31-0.06-0.62-0.11-0.94-0.17c-0.63-0.12-1.27-0.22-1.91-0.38c-5.13-1.14-10.59-3.1-15.85-6.37 c-2.63-1.63-5.19-3.59-7.53-5.83c-2.34-2.27-4.44-4.85-6.15-7.51c-1.71-2.67-3.01-5.44-3.9-7.88c-0.48-1.22-0.8-2.38-1.11-3.45 c-0.15-0.54-0.3-1.05-0.41-1.54c-0.1-0.48-0.2-0.94-0.3-1.38c0.24,1.6,0.68,3.26,1.13,4.89c0.24,0.82,0.54,1.63,0.83,2.44 c0.3,0.81,0.6,1.62,0.98,2.42c1.42,3.25,3.31,6.22,5.4,8.84c1.05,1.33,2.15,2.51,3.29,3.66c1.14,1.09,2.31,2.16,3.49,3.08 c2.37,1.88,4.8,3.44,7.2,4.69c2.41,1.26,4.8,2.27,7.15,3.04c2.35,0.79,4.67,1.35,6.93,1.74c0.57,0.09,1.13,0.18,1.68,0.26 c0.51,0.06,1.02,0.12,1.52,0.17c1,0.12,1.94,0.16,2.86,0.21c0.91,0.04,1.78,0.04,2.62,0.04c0.81-0.02,1.62-0.04,2.36-0.1 c-0.75-0.04-1.56-0.08-2.43-0.12C220.22,180.58,219.3,180.52,218.27,180.41z M187.89,159.84c0.81,1,1.79,2.22,2.69,3.1 c0.59-0.04,0.38-0.6-0.19-1.36c-0.56-0.77-1.47-1.79-2.32-2.74c-0.84-0.97-1.65-1.83-2.06-2.17c-0.42-0.33-0.52-0.03,0.15,1.28 C186.46,157.99,187.09,158.81,187.89,159.84z M333.74,135.56c2.5-1.33,4.06-0.19,4.52-1.08 C337.55,134.05,334.24,134.12,333.74,135.56z M99.78,17.89c0.09-0.02,0.17-0.03,0.26-0.05c-0.07,0.01-0.13,0.01-0.2,0.02 C99.81,17.86,99.8,17.87,99.78,17.89z M337.07,136.12c-1.92-0.11-5.63,1.22-8.18,2.49C330.31,138.6,335.97,137.08,337.07,136.12z M156.82,115.66c0.15-0.11,0.26-0.25,0.34-0.39C156.86,115.36,156.83,115.51,156.82,115.66z M327.51,136.17 c0.56,0.27,2.87-0.82,3.11-0.31c-0.99,0.3-1.98,0.6-2.97,0.9c-0.16,0.63-0.95,1.36,0.35,1.48c0.28-1.04,2.29-1.92,4.91-2.75 C333.38,134.23,325.5,136.38,327.51,136.17z M101.02,134.67c0.42-0.13,0.79-0.5-0.07-0.29c-0.42,0.84-4.7,1.37-3.5,2.34 c1.96-0.71,4.12-1.42,5.14-2.21C101.99,134.62,101.11,134.95,101.02,134.67z M57.67,17.83c0.64,1.65-4.17-0.54-2.35,0.29 c0.75,0.97-3.18,1.36-3.59,2.19C54.09,19.7,61.09,18.17,57.67,17.83z M30.06,34.53c-0.37-0.51,0.85-0.92,1.27-1.36 c-0.94,0.01-2.09,0.25-3.79,0.9C27.6,34.86,29.38,34.25,30.06,34.53z M24.25,51.47c-2.58,0.2-3.96-0.27-6.06,0.84 c0.8-0.2,1.86-0.12,0.89,0.33c-0.82,0.15-2.35,0.44-3.82,0.83c-1.47,0.39-2.86,0.92-3.41,1.46c2.38-0.61,4.56-1.24,6.6-1.83 C20.48,52.49,22.38,51.91,24.25,51.47z M14.49,47.82c-0.15-1.16-7.18,1.91-8.02,2.64c0.99-0.11,2.35-0.75,3.78-1.38 c0.72-0.31,1.45-0.62,2.17-0.86C13.14,47.98,13.84,47.83,14.49,47.82z M52.42,27.66c0.89-0.18,0.91,0.26,0.94,0.7 c1.5-0.24,3.69-1.8,2.08-1.48c-0.01,0.19-0.04,0.38-0.69,0.49c-0.04-0.21-0.08-0.4-0.12-0.6c-2.71,0.52-3.83,1.28-4.33,2.1 C53.83,28.16,50.98,28.18,52.42,27.66z M48.86,29.59c-1.06-0.7,1.02-1.05,1.25-1.62c-2.56,0.78-0.14-1.02-3.26-0.34 C47.36,28.72,45.26,30.38,48.86,29.59z M3.84,44.62c-9.48,3.67,1.08,0.36,5.1-1.91C7.17,43.37,5.54,43.98,3.84,44.62z M78.07,141.96c0.06,0.88,2.09,0.34,4.11-0.17c-1.44-0.73,2.63-0.9,2.16-1.54C81.74,140.14,80.84,141.96,78.07,141.96z M58.46,144.39c-0.21-0.2-0.1-0.59-0.9-0.44c-2.45,1.23,4,1.26,3.3-0.36C59.74,143.82,59.09,144.1,58.46,144.39z M22.69,95.39 c-0.58,1.19-0.22,1.01,0.3,0.66c0.54-0.33,1.26-0.82,1.42-0.29c-0.98,1.02-1.39,1.63-1.51,1.92c-0.12,0.29,0.06,0.29,0.31,0.21 c0.51-0.16,1.33-0.63,0.72,0.24c-0.94,0.8-1.6,1.84-2.08,2.64c-0.47,0.82-0.77,1.39-1.07,1.22c-0.26-0.31,0.47-1.31-0.06-1.42 c-1.84,2.21-2.11,3-1.81,3.26c0.37,0.14,1.29-0.23,1.94-0.44c0.45-0.77,1.02-1.63,1.65-2.51c0.65-0.85,1.36-1.74,2.04-2.6 c0.68-0.87,1.39-1.66,1.98-2.42c0.59-0.76,1.09-1.46,1.44-2.04c-0.69,0.54-2.71,0.87-1.49-0.23c0.33-0.18,0.98-0.69,1.71-1.35 c0.74-0.67,1.58-1.46,2.32-2.17c0.74-0.72,1.36-1.39,1.65-1.84c0.29-0.44,0.25-0.65-0.36-0.48c-0.23,0.42-0.75,1.02-1.42,1.7 c-0.66,0.67-1.47,1.41-2.26,2.16c-0.79,0.73-1.59,1.4-2.24,1.91c-0.64,0.52-1.15,0.86-1.4,0.86c1.06-1.15,2.02-2.13,2.8-3.03 c0.77-0.9,1.37-1.69,1.76-2.35c-1.15,1.17-1.52,1.37-1.6,1.12c-0.07-0.23,0.16-0.87,0.3-1.18C26.07,90.99,26.32,93.09,22.69,95.39z M15.34,45.26c2.56-0.5,4.6-0.62,6.71-1.71C20.7,43.6,15.97,44.63,15.34,45.26z M28.09,51.16c1.42-1.05,5.9-1.87,7.04-2.95 C32.79,48.56,29.02,49.91,28.09,51.16z M337.31,133.82c2.96-0.98,3.33-0.95,1.62,0.13c3.82-0.8,6.02-2.95,9.32-4.21 c-3.61,1.35-4.9,0.83-7.61,1.45C340.74,132.17,336.74,132.81,337.31,133.82z M113.89,49.77c-0.31,0.05-0.77,0.02-1.46-0.09 c-0.41,0.28-0.4,0.88-3.26,0.26c-0.38,0.24-0.71,0.49,0.08,0.91c-0.89-0.3-2.02-0.47-2.63-0.5c-0.62-0.03-0.78,0.08-0.01,0.47 c0.33-0.06,0.46-0.26,1.14-0.07c-0.23,0.08,0.63,0.33,0.52,0.44c-1.29-0.37-1.71-0.03-2.71-0.32c0.45,0.22,0.87,0.44,0.43,0.47 c0.74,0.28,1.57,0.48,2.24,0.52c0.67,0.04,1.18-0.1,1.13-0.42c1.12,0.34,2.13,0.55,3.21,0.75c-0.86,0.05-0.78,0.25-0.85,0.38 c-0.06,0.12-0.28,0.17-1.55-0.16c0.73,0.29,1.23,0.55,1.36,0.78c0.89-0.39,2.3,0.13,3.36-0.25c-0.95-0.52,0.45-0.73-1.58-0.7 c0.28-0.1-0.06-0.23,0.06-0.34c0.07-0.2,0.84-0.14,1.46-0.11c0.61,0.03,1.08,0.02,0.41-0.26c-0.63,0.1-0.69-0.13,0.28-0.1 c-0.85-0.16-1.92-0.47-2.41-0.39c0.48,0.23,0.04,0.39-0.61,0.44c-0.65,0.06-1.51,0.01-2.02-0.13c1.66-0.39,3.56-1.11,5.78-0.87 c-0.77-0.31-2.03-0.32-3.83-0.48C112.12,49.7,115.53,50.1,113.89,49.77z M102.99,53.55c0.06-0.45,0.56-0.49,1.03-0.55 c0.46-0.06,0.87-0.14,0.45-0.55c-0.88,0.08-1.65-0.08-2.37,0.13C102.55,53.44,103.01,52.72,102.99,53.55z M108.78,48.5 c-0.28,0.1-2.08-0.07-1.9,0.08c0.58,0.14,1.74,0.21,2.46,0.18C110.06,48.75,110.31,48.63,108.78,48.5z M104.45,48.83l0.19-0.06 c0.93,0.2,2.06,0.37,3.15,0.44c1.08,0.07,2.14,0.05,2.65-0.06c-1.34-0.12-3.08-0.23-4.32-0.31 C104.87,48.76,104.11,48.7,104.45,48.83z M106,51.64c-0.26,0.18-0.82-0.15-1.2-0.23c0,0.16,0.65,0.59,1.26,0.9 c0.61,0.31,1.2,0.5,0.91,0.24c-0.59-0.39-0.96-0.36-1.52-0.74C105.71,51.78,106.49,52.03,106,51.64z M116.59,51.66 c0.6-0.18,1.74-0.24,2.75-0.33c1.01-0.09,1.88-0.21,1.75-0.44c-0.73-0.2-1.68-0.13-2.4-0.09c-0.71,0.05-1.21,0.08-1.24-0.12 c-0.14,0.03-0.83,0.08-1.3,0.19C115.55,51.02,115.27,51.23,116.59,51.66z M104.92,49.39c-0.23,0.06-0.38,0.1,0.2,0.41 c0.5,0.03,0.52-0.05,0.61-0.09c0.1-0.04,0.27-0.05,1.19,0.1c-1.34-0.35,0.24-0.35-0.84-0.62c-0.22,0.01-0.61-0.04-1.25-0.18 C105.43,49.26,105.13,49.34,104.92,49.39z M117.45,50.68c0,0.01,0,0.01,0,0.01C117.49,50.69,117.5,50.68,117.45,50.68z M52.49,42.77c0.06,0.3,0.13,0.59,0.19,0.89c1.72-1.23,1.01-0.62,4.44-0.91c-2.7-0.67,0.01-0.51,1.95-1.76 c-1.34,0.09-2.38,0.34-3.39,0.67C54.69,42.01,53.71,42.42,52.49,42.77z M84.73,39c2.24-0.27,3.18,0.29,5.32,0.14 c0.07-0.38-0.25-0.83,0.61-1.05c1.58-0.1,3.73,1.09,5.28-0.09c-4.9,0.68-3.2-1.42-4.75-1.56c0.32,0.75-0.09,1.35-2.04,1.63 c0.11-0.72-0.34-1.1-1.65-0.91c0.05,0.39-1.25,0.55-1.38,0.91C89.7,37.81,85.02,38.58,84.73,39z M61.51,41.62 c3.32,0.39-1.49,1.05-0.49,1.38c2.19-0.98,4.21-0.16,5.11-1.32C64.07,42.04,63.58,41.26,61.51,41.62z M80.27,39.64 c2.63-0.19,2.22,0.59,1.02,1.65c1.8-1.32,2.86-1.27,4.31-1.54C83.77,39.43,82.83,38.58,80.27,39.64z M102.59,49.97 c0.94,0.47,1.69,0.68,2.65,0.99c-0.4-0.22-0.18-0.27,0.07-0.33c-1.52-0.48-0.76-0.7-1.48-0.73 C104.03,50.28,102.94,49.9,102.59,49.97z M101.5,52.47c-0.22-0.95-1.57-0.29-1.42,0.15C100.76,52.8,101.01,53,101.5,52.47z M161.96,71.15c-0.23,0.46,0.52,0.58,1.69,0.44c1.18-0.13,2.77-0.51,4.21-1.11C166.32,70.66,163.55,69.83,161.96,71.15z M116.17,86.64c2.59-1.08,4.05-0.43,4.45-1.68c-2.42,1.32-2.79-0.58-3.84,0.85c0.46-0.12,0.9-0.23,0.82,0.07 C117.04,86.12,116.12,86.34,116.17,86.64z M123.38,82.86c2.2-1.07,6.54-1.96,8.32-3.04c-1.44,0.22-3.06,0.09-4.59,0.17 c-1.53,0.08-3,0.35-4.08,1.39c1.95-0.55,2.81-0.24,4.04-0.23C125.15,81.66,123.92,82.23,123.38,82.86z M110.65,87.08 c0.46-1.19-0.37-1.33,2.55-2.7c-2.58-0.11-2.1,1.77-5.82,2.46C107.46,87.7,109.66,86.91,110.65,87.08z M235.56,130.64 c1.15-0.39,2.03-0.82,2.44-1.34c-2.07,0.6-2.98,0.84-3.74,1.12c-0.75,0.27-1.36,0.58-2.7,1.26 C232.96,131.38,234.41,131.02,235.56,130.64z M146.45,79.41c-0.11-0.4,0.25-0.75,0.63-1.09c-2.85,1.23-1.28,0.13-4,0.67 c-0.1,0.38-0.79,0.69-1.46,0.99c-0.79,0.2-0.98,0-1.62,0.11C141.11,81.22,144.65,78.7,146.45,79.41z M80.72,96.39 c0.99-0.46,3.8-0.78,3.51-1.37c-0.57,0.1-1.42,0.42-1.51,0.14c-0.61-0.51,1.81-1.56-0.93-0.67c0.59,0.6-1.79,1.25-3.89,1.81 c-0.79,0.21-1.53,0.4-2.07,0.58c0.15-0.12,0.31-0.29,0.49-0.53c-2.96,0.65,1.94-1.39,1.64-1.78c-1.28,0-3.52,1.37-3.84,2.17 c0.25-0.13,0.55,0.38,1.04,0.4c-0.28,0.17-0.2,0.3,0.49,0.42C76.29,96.77,84.79,94.39,80.72,96.39z M72.03,100.87 c1.59-1.09,7.17-3.78,6.18-3.75C75.99,98.34,71.89,99.72,72.03,100.87z M137.95,78.12c2.76-0.68,2.26-1.71,3.66-2.52 c-1.61,0.39-3.16,0.82-4.75,1.24C136.38,77.86,138.13,77.32,137.95,78.12z M168.92,57.55c-1.83,0.48-4.41,1.8-5.9,2.84 c-1.62,1.02-2.08,1.81,0.99,1.08c-0.12-1.02,3.19-0.85,4.84-2.14C166.92,59.24,169.83,57.88,168.92,57.55z M146.91,68.44 c-2.36,0.95-4.73,1.89-7.09,2.84c0.53,0.48,2.21-0.11,3.8-0.88C145.22,69.63,146.7,68.7,146.91,68.44z M108.11,40.76 c-0.73,0.59-1.43,1.18-1.32,1.32c1.3-1.2,1.99-1.7,4.17-3.07c-0.24-0.17-0.09-0.46-1.49,0.44 C109.62,39.58,108.84,40.17,108.11,40.76z M56.83,45.03c1.74-0.55,8.38-1.89,6.5-1.99c-2.47,0.89-3.14,0.46-4.5,0.53 C59.2,44.2,56.79,44.44,56.83,45.03z M151.31,73.6c-1.45,0.92-1.49,0.16-4.04,0.93c0.1,0.41-0.27,0.75-0.65,1.09 c2.31-0.27,2.01-0.9,3.97-1.23c0.03,0.17,0.71,0.2,0.81-0.18c-0.49,0.1-0.96,0.17-0.85-0.12C151.4,73.91,152.58,73.48,151.31,73.6z M103.15,38.44c-0.26,0.56-0.51,1.12-0.77,1.68C103.27,39.91,103.83,38.53,103.15,38.44z M42.89,122.11 c0.02,0.01,0.03,0.02,0.05,0.02C42.93,122.13,42.91,122.12,42.89,122.11C42.89,122.11,42.89,122.11,42.89,122.11 C42.89,122.11,42.89,122.11,42.89,122.11L42.89,122.11c-0.06-0.03-0.12-0.06-0.17-0.08c-0.04-0.02-0.09-0.04-0.13-0.06 c-0.01,0-0.02-0.01-0.03-0.01C42.67,122.01,42.78,122.06,42.89,122.11L42.89,122.11z M42.71,122.03 C42.71,122.03,42.72,122.03,42.71,122.03c0.02,0.01,0.03,0.02,0.05,0.02C42.74,122.04,42.73,122.03,42.71,122.03z M42.76,122.05 C42.76,122.05,42.76,122.05,42.76,122.05C42.76,122.05,42.76,122.05,42.76,122.05C42.76,122.05,42.76,122.05,42.76,122.05z M40.66,121.19c0.03,0.01,0.05,0.02,0.08,0.03c-0.04-0.01-0.07-0.03-0.11-0.04c-0.02-0.01-0.05-0.02-0.07-0.03 c-0.01,0-0.03-0.01-0.04-0.01c-0.01,0-0.02-0.01-0.02-0.01c-0.02-0.01-0.04-0.01-0.06-0.02c0,0,0,0,0,0c-0.01,0-0.01,0-0.02-0.01 c0.02,0.01,0.03,0.01,0.05,0.02c-0.06-0.02-0.12-0.04-0.18-0.06c0.02,0.01,0.03,0.01,0.05,0.02c0.12,0.04,0.25,0.08,0.37,0.12 C40.69,121.2,40.68,121.19,40.66,121.19z M214.49,138.92L214.49,138.92L214.49,138.92l0.01,0l0,0l0.01-0.01l0.01,0l0.01,0 c0.01,0,0.01,0,0.02-0.01L214.49,138.92z M44.61,122.97c-0.13-0.07-0.24-0.13-0.36-0.19c0.08,0.04,0.16,0.08,0.24,0.13 c0.02,0.01,0.03,0.02,0.05,0.02c0.04,0.02,0.08,0.04,0.11,0.06C44.64,122.99,44.63,122.98,44.61,122.97z M42.66,122 c-0.02-0.01-0.03-0.01-0.04-0.02c0.03,0.01,0.06,0.03,0.09,0.04C42.7,122.02,42.68,122.01,42.66,122z M37.36,120.73 C37.36,120.72,37.36,120.72,37.36,120.73c0.01-0.01,0.01-0.01,0.01-0.01C37.37,120.72,37.36,120.72,37.36,120.73 C37.36,120.72,37.36,120.73,37.36,120.73z M42.03,121.73c-0.05-0.02-0.08-0.03-0.12-0.05c0.02,0.01,0.05,0.02,0.07,0.03 c0.01,0,0.01,0.01,0.02,0.01c0.04,0.01,0.08,0.03,0.12,0.05C42.09,121.75,42.05,121.74,42.03,121.73z M40,120.97 c-0.02-0.01-0.04-0.01-0.07-0.02c0.05,0.01,0.1,0.03,0.15,0.04C40.06,120.99,40.03,120.98,40,120.97z M37.37,120.72 C37.37,120.72,37.37,120.72,37.37,120.72C37.37,120.72,37.37,120.72,37.37,120.72C37.37,120.72,37.37,120.72,37.37,120.72 L37.37,120.72C37.37,120.72,37.37,120.72,37.37,120.72C37.37,120.72,37.37,120.72,37.37,120.72c-0.01,0.01-0.01,0.01-0.02,0.01 c-0.01,0.01-0.01,0.01,0.01,0C37.36,120.72,37.36,120.72,37.37,120.72C37.36,120.72,37.37,120.72,37.37,120.72 C37.37,120.72,37.37,120.72,37.37,120.72C37.37,120.72,37.37,120.72,37.37,120.72C37.37,120.72,37.37,120.72,37.37,120.72 L37.37,120.72C37.38,120.71,37.38,120.71,37.37,120.72C37.38,120.71,37.38,120.71,37.37,120.72 C37.38,120.71,37.37,120.72,37.37,120.72z M47.88,76.11c1.05-0.5,2.24-0.85,2.38-0.68c0.06-0.52,0.84-1.17,0.23-1.55 c-1.14,0.87-1.58,1.14-2.09,1.4c-0.51,0.26-1.1,0.49-2.55,1.4c1.19,0.16-3.03,3.31,0.57,1.08C45.94,77.32,46.83,76.61,47.88,76.11z M72.63,43.88c-0.93-0.47-4.89-0.65-6.72,0.69c1.02,0.15,3.21-0.49,5.15-0.94C69.21,44.49,72.68,44.46,72.63,43.88z M42.47,78.14 c2.81-1.7,4.62-2.41,6.07-4.16C46.77,75.21,42.71,77.12,42.47,78.14z M188.78,109.28c-1,0.04-1.05-0.27-1.83,0.11 C186.66,110,187.87,109.63,188.78,109.28z M74.72,38.39c0.12-0.75-0.32-1.13-0.99-1.33c-0.99,0.19-3.98,1.43-2.11,1.12 c0.74-0.17,0.83-0.45,1.42-0.64C72.96,38.27,73.42,38.62,74.72,38.39z M66.74,40.9c1.47-1.57,4.71-1.25,8.03-2.21 c-0.47,1.74-3.59,2.29-7.13,2.93C67.63,41.18,67.61,40.74,66.74,40.9z M73.36,39.34c-2.68,0.38-3.43,1.51-5.14,1.22 C67.45,41.71,74.47,40.06,73.36,39.34z M58.71,42.97c4.21-3.01,4.37-2.97,9.34-3.31c0.05-0.48-0.46-1.04,0.52-1.38 c0.08,0.17,0.18,0.33,0.79,0.13c-0.88-0.66-2.47-0.41-4.22,0.22c-1.75,0.63-3.69,1.57-5.33,2.18c0.83-0.15,1.21,0.03,1.58,0.22 C59.38,41.36,57,43.09,58.71,42.97z M186.89,113.24c-0.28,0.34-0.14,0.39,0.2,0.39c0.59-0.12,1.08-0.35,1.45-0.56 c0.37-0.2,0.62-0.36,0.71-0.21c-0.03,0.23-0.89,0.48-1.32,0.7c1.03-0.32,0.87-0.1,1.28-0.14c0.99-0.59,1.33-1.07,1.32-1.49 c0.01-0.43-0.4-0.81-0.64-1.2c1.02-0.62,0.6-0.92,1.96-1.22c-0.28-0.05-0.37-0.3-0.56-0.44c-0.19-0.14-0.45-0.17-0.98,0.15 c-0.18,0.34,0.15,0.35,0.3,0.46c0.16,0.1,0.13,0.3-0.84,0.92c-1.17,0.34,0.08-0.51-0.87-0.48c-0.7,0.62-0.94,1.03-1.13,1.44 c-0.18,0.4-0.34,0.85-0.84,1.32c1.23-0.56,2.06-0.83,2.13-0.59c-0.03,0.36-0.56,0.72-1.39,1.06 C187.78,113.15,187.59,113.04,186.89,113.24z M223.62,139.23c0.04,0.01,0.08,0.02,0.12,0.03c0.01,0,0,0-0.03-0.01 C223.68,139.25,223.66,139.24,223.62,139.23z M214.57,138.88l-0.02,0.01c0,0,0,0,0,0c0,0,0,0,0,0c0,0-0.01,0-0.01,0L214.57,138.88 C214.57,138.88,214.57,138.88,214.57,138.88z M264.67,161.73c0.68,0.98-3.54,1.24-3.58,2.11l4.55-1.1 C264.62,162.17,267.75,160.88,264.67,161.73z M309.93,142.58c-0.03-0.06-0.07-0.11-0.12-0.15 C309.81,142.48,309.84,142.53,309.93,142.58z M222.85,139.04C222.85,139.04,222.85,139.04,222.85,139.04 c0.03,0.01,0.07,0.02,0.11,0.03c-0.02,0-0.03-0.01-0.05-0.01C222.89,139.05,222.87,139.04,222.85,139.04z M279.11,158.44 c-2.1-0.05-6.27,1.54-8.26,2.4c0.94,0.27,5.73-0.42,6.17-0.92C273.78,160.01,279.36,158.91,279.11,158.44z M37.61,120.59 C37.61,120.59,37.61,120.59,37.61,120.59C37.61,120.59,37.61,120.59,37.61,120.59C37.61,120.59,37.61,120.59,37.61,120.59z M347.22,119.54c-2.71,0.77-3.25-0.21-6.82,1.22c0.07,0.3,0.15,0.59,0.22,0.89c1.8-0.44,1.46-1.04,3.6-1.45 c0.06,0.58-2.37,0.97-1.98,1.58c1.83-1.36,1.66-0.05-0.66,0.53c1.23,0.54,5.3-2.64,5.36-0.75c-5.74,1.28-7.81,5.36-13.3,3.87 c-0.94,0.4-1.03,0.88-2.06,1.27c3.02,0.84,8.64-1.64,9.57,0.21c-0.72,0.21-0.66-0.18-0.89-0.36c-0.68,0.53-1.34,1.05-1.98,1.58 c-3.28,0.45-4.25,0.58-8.41,1.32c2.36,0.17,5.01,1.47,7.58-0.33c-0.61,0.56,0.54,1.27-1.69,1.7c1.05,0.52,3.94-1.18,2.74-1.8 c2.43,0.11,4.34-1.59,6.56-2.38c-3.36,2.12,2.15,0.4,3.25,0.23c-2.58,2.25-3.58,0.65-7.44,2.05c-4.61,2.9-15.5,6.79-20.45,7.48 c-0.86,0.3-0.5,0.72-0.53,1.11c-1.24,0.36-2.48,0.72-3.72,1.08c-0.11-0.77,0.73-2.01-0.95-0.67c-0.63-0.4-0.58-1.37,2.03-1.53 c-1.28-1.3-2.39,0.47-5.27,1.21c-0.83,1.44,2.17-0.02,1.82,1.05c-1.37,0.11-2.33-0.08-3.92,0.18c-1.36,0.43-0.23,1.13-1.22,1.61 c2.02-0.93,3.8-1.45,5.96-1.71c0.09,0.78-2.67,1.28-3.52,1.96c2.28,0.55,6.46-2.39,8.39-1.48c1.97-0.49,0.32-1.32,2.77-1.77 c-1.89,2.03,1.67-0.16,3.18,0.01c-2.42,1.51-6.15,2.91-6.9,4.56c-3.05,0.39-3.36,1.33-5.36,0.92c-1.53,0.52,0.09,1.37-1.16,1.91 c0.24,0.63,3.2-0.79,4.55-1c-1.31,1.33-6.26,2.83-8.03,3.24c1.13,0.65,2.49,1.15,6.33-0.22c-4.85,2.12-11.69,2.44-18.08,4.73 c-1.55,0.51,1.29,0.5-1.32,1.3c1.48,0.18,2.99,0.35,6.21-0.75c1.87,0.34-7.59,1.84-8.16,2.85c0.21,0.3,0.79-0.04,0.75-0.2 c2.57-0.57-1.77,1.69,1.69,0.49c-4.27,2.15-11.1,1.93-15.98,3.57c2.1-1.99,6.66-1.28,10.45-3.36c-4.96,0.2-13.19,2.18-17.44,4.18 c-1.6,0.22-1.69-0.06-0.92-0.71c-5.16,0.82-5.97,2.02-9.08,2.23c-0.99,0.55,0.41,0.42-1.35,1.26c-1.74,0.24,0.83-0.69-0.92-0.72 c-4.99,2.8-6.48,1.39-11.13,4.17c-2.16,0-3.61-0.49-7.76,0.82c1.58,0,1.53,0.17,0.75,0.42c-0.79,0.25-2.31,0.57-3.78,0.87 c1.41-0.19,1.8,0.1,2.05,0.24c0.25,0.14,0.37,0.14,1.13-0.63c1.05-0.14,0.76,0.61,0.96,1.03c2.36-0.31,2.16-1.02,4.52-1.33 c-0.18-0.33-1.43,0.06-2.34,0.21c3.78-2.04,6.11-0.3,9.34-0.9c0.88-0.25,0.55-0.69,0.61-1.07c1.32-0.38,3.93-0.06,4.56-1.08 c1.33,0.11,2.75,0.14,3.31,0.78c5.31-1.96,13.71-3.73,18.1-5.13c2.04,0.7-8.01,2.42-8.28,2.41c-1.93,0.52-1.32,1.38-1.18,2.18 c1.34-0.89,4.97-1.47,7.54-2.21c-1.28,0.88-4.2,1.79-7.12,2.6c-2.92,0.79-5.85,1.47-7.15,1.88c-1.75,0.11,1.69-1.49,3.64-1.83 c-0.8-0.13-1.62-0.24-2.45-0.34c-1.91,0.42-1.72,1.13-2.88,1.63c-1.39,0.1-0.21-0.52-0.16-0.9c-1.31,0.2-1.4,0.57-1.42,0.96 c-4.71,0.34-4.92-0.32-11.63,1.48c0.44,0.14,0.87,0.3,0.91,0.72c-2.38,0.16-4.38,1.29-7.01,0.66c1.3,0.85,1.71,0.15-0.57,1.37 c2.29-0.22,5.55-0.98,8.39-1.91c-0.07,2.31-8.14,1.7-10.57,3.33c-0.67-0.13-0.97-0.49-0.99-1.02c-3.03,0.77-5.44,1.19-7.54,1.51 c-2.13,0.32-3.98,0.58-6.39,0.98c1.91,0.29,4.12-0.36,7.96-0.69c-0.11,0.38-1.67,0.55-2.83,0.75c1.01,0.34,2.57-0.13,3.67-0.39 c1.09-0.27,1.76-0.33,1.15,0.82c1.14-1,2.67-1.33,4.35-1.58c1.69-0.25,3.47-0.41,5.29-1.12c0.02,0.79-2.42,1.17-4.52,1.64 c0.07,0.29,1,0.02,1.61-0.05c-1.01,0.67-2.54,0.96-4.72,1.31c-2.2,0.34-4.99,0.76-8.78,1.45c2.18,0.22,0.94,0.48-1.65,0.72 c-1.29,0.12-2.98,0.19-4.73,0.22c-1.77,0.01-3.6-0.01-5.2-0.07c0.26-0.52-1.41-0.76-1.01-1.3c2.63,0.07,2.26,0.6,2.3,1.09 c2.04,0.1,4.02,0.1,5.92,0c-2.91-0.31-5.11-0.97-8.1-1.69c-0.68-0.05-1.23-0.09-1.68-0.1c-0.46-0.02-0.87-0.03-1.17-0.02 c-0.62,0.02-0.95,0.11-1.22,0.2c-0.53,0.18-0.82,0.41-2.78-0.01c1.73-0.29,0.76-0.91-1.3-1.77c-2.06-0.87-5.21-2.15-8.07-3.73 c-0.95,0.23,1.43,1.45,3.41,2.28c-1.81,0.01-4.51-1.66-5.54-2.86c-0.53-0.57-0.66-0.96-0.16-0.86c0.5,0.09,1.61,0.69,3.69,1.82 c-0.13-0.43-2.29-1.42-2.06-1.78c-3.55-2.03-5.73-3.61-7.77-5.39c-0.51-0.47-1-0.94-1.5-1.45c-0.5-0.51-0.99-1.1-1.5-1.73 c-1.01-1.27-2.06-2.86-3.09-4.99c-0.37-1.38-0.07-1.15,0.2-0.93c0.28,0.22,0.54,0.43,0.23-0.92c-0.33-0.02-0.64-0.13-0.95-0.4 c-0.32-0.27-0.65-0.7-0.99-1.36c-0.69-1.3-1.65-3.53-2.34-7.16c-0.11,0.41-0.08,1.28,0.1,2.35c0.21,1.07,0.49,2.33,0.86,3.49 c0.38,1.16,0.71,2.23,0.92,2.95c0.2,0.73,0.2,1.13-0.23,0.95c-0.73-1.35-1.22-2.68-1.71-3.97c-0.43-1.29-0.78-2.57-1.05-3.79 c-0.5-2.45-0.71-4.76-0.71-6.94c0-4.39,0.65-8.38,1.76-12.82c0.28,0.68,0.68-0.17,1.12-0.92c0.44-0.77,0.88-1.51,1.13-0.85 c0.31-0.99,0.2-1.29,0.7-2.43c-0.11-0.96-0.58-0.07-1.03,0.83c-0.46,0.89-0.86,1.89-1.02,0.9c0.34-0.57,0.85-1.34,1.36-2.23 c0.26-0.47,0.51-0.85,0.76-1.26c0.24-0.4,0.49-0.85,0.67-1.2c0.18-0.27,0.05-0.59-0.84-0.88c0.24-0.35,1.11,0.04,1.41-0.41 c1.01,0.18-0.49,0.82,0.67,1.07c0.44-0.41,0.45-0.77,0.43-1.04c-0.01-0.27-0.02-0.45,0.55-0.62c0.28-0.37,1.26,0.08,1.84,0.05 c-0.99,0.24-1.09,0.34-0.81,0.42c0.29,0.08,1,0.14,1.74,0.21c-1.46,0.34-0.25,0.09-0.79,0.94c0.28,0.02,0.49-0.16,0.8-0.08 c0.51-1.02,1.24-1.73,1.58-2.3c0.33-0.57,0.26-0.97-0.98-1.1c2.44-1-0.2,0,0.54-0.88c0.43-0.06,0.87-0.12,1.3-0.18 c0.33-0.88,0.35-1.02,1.48-2.54c2.36-0.79,1.16-0.71,2.26-1.79c-0.81,0.11-1.23,0.29-1.26,0.23c-0.05-0.06,0.36-0.34,0.86-1.18 c-0.27-0.31-0.93,0.38-1.06,0.73c-0.55,0.03-0.45-0.24-0.4-0.55c0.04-0.31,0.01-0.65-0.75-0.6c0.75-0.29,1.13-0.08,1.92-0.37 c-0.84-0.24-1.19-0.74-1.74-1c-0.55-0.26-1.3-0.3-2.72,0.39c0.45-0.57,0.09-0.96-0.64-1.02c-0.73-0.04-1.78,0.25-2.7,0.97 c-0.56-0.1-0.24-0.66-1.27,0.25c0.24-0.98-1.65-0.87-2.91-0.09c-0.14,0.33,0.08,0.21,0.33,0.12c0.25-0.1,0.54-0.18,0.45,0.21 c-0.19,0.44-0.42,0.37-0.65,0.31c-0.23-0.07-0.48-0.12-0.62,0.31c-0.5-0.27-0.03-0.48,0.4-1.27l-0.51,0.01 c-0.84,0.23-0.05,0.67-0.55,1.27c-0.71-0.23-1.35-0.39-1.88,0.68c-0.39-0.16-0.38-0.47-0.05-0.93c-0.4-0.05-0.65,0.57-0.7,0.04 c-0.48,0.25-0.63,0.87-0.67,1.58c-0.48-0.01-0.11-1.02-0.02-1.22c-0.19-0.02-0.33,0.12-0.44,0.2c-0.05,0.04-0.09,0.07-0.14,0.06 c-0.06-0.01-0.11-0.06-0.16-0.19c-0.54,0.2,0.18,0.37,0.08,0.91c-0.08-0.05-0.67-0.01-1.1,0c-0.46,0.02-0.93,0.05-1.3,0.04 c-0.35,0-0.61-0.04-0.71-0.12c-1.12,0.8-3.97,1.67-3.71,0.44c-1.91,0.28-1.34,0.71-2.79,0.46c-1.21,0.88-2.29,1.32-1.17,2.07 c-1.75,0.27-1.59,0.98-2.65,1.42c-1.75,0.21-4.19,0.88-4.32-0.03c-0.81,0.22-0.5,0.67-0.55,1.05c-1.93,0.7-1.88-0.01-3.54,0.5 c-0.13,0.02-0.22,0.04-0.31,0.06c0.51-0.92-0.37-2.36-4.48-2.03c-1.72,0.3,0.66,1.26-1.95,1.42c0.19-0.85-3.46-1.65-3.09-0.45 c-2.94,0.42-0.25-0.98,1.18-1.57c-1.68-0.58-2.81,1.31-3.39,1.83c-0.91,0.11-1.56,0.02-1.63-0.5c-3.23,2.59-7.37,2.82-9.58,4.96 c1.27-1.11-0.26-0.27-0.94-0.67c-1.22,0.46,1.18,0.75-1.95,1.54c1.48-2.34-3.11,2.01-3.03,0.29c-1,0.58-2.19,1.14-1.88,1.85 c-1.23-0.08-1.73-0.75-4.58,0.47c0.39,0.16,0.77,0.33,1.6,0.14c-0.77,0.59-8.33,2.13-10.16,3.51c2.34-0.79,4.04-0.55,8.2-1.94 c1.57,0.14-6.59,1.96-3.94,3.14c-1.94-0.79-4.41,1.1-7.57,1.44c-1.22,1.06-1.79,2.18-5.65,3.04c-0.02,1.08,3.26-0.45,3.34,0.54 c-3.45,0.5-9.87,2.94-10.58,2.96c-1.01-0.42-1.66-2.3-4,0.26c0.18-0.26-2.3-0.88-3.96,0.54c-0.75,0.04-1.35-0.49-1.6,0.15 c-1.92,0.5-0.45-0.94-0.26-1.18c-3.45,0.48-2.55,1.82-4.55,1.61c-0.89,1.46,3.46-0.92,2.57,0.54c-3.05,0.41-5.92,0.59-6.69-0.67 c-3.08,1.66,0.86,0.85,1.21,1.88c-1.11,0.28-2.22,0.55-2.27,0.94c-1.15,0.18,0.08-2.17-3.38-0.39c-0.49-0.54,1.01-0.86,2.24-1.2 c-0.82-0.35-1.93-0.47-3.36-0.39c-0.02-0.59,2.54-0.87,2.16-1.5c-0.08-0.34-2.14,0.32-3.63,0.94c-1.49,0.61-2.42,1.16-0.15,0.67 c-1.69,0.6-4.31,1.05-6.41,0.92c-1.43,0.71-0.97,0.91,0.14,0.82c1.11-0.08,2.84-0.48,3.96-0.86c-1.08,0.61-2.32,0.99-3.64,1.4 c-1.33,0.4-2.73,0.85-4.11,1.62c-0.36-0.64-0.04-1.18,0.57-1.68c-1.81,0.06-3.14,0.4-4.56,0.76c-1.42,0.36-2.92,0.79-5.13,0.88 c-0.25,1.32,2.45-0.85,1.77,0.92c-3.05,0.97-1.96-2.06-4.21-0.48c-1.4,0.04-0.58-0.61,0.74-0.75c0.22-0.61-0.5-0.68-1.44-0.62 c-0.68,0.03-2.77,0.33-3.64,0.15c-2,0.47-2.95,0.98-1.3,1.32c1.51-0.14,1.09-0.64,1.3-1.01c1.66,0.05,2.37,0.34,2.57,0.9 c-1.34,0.17-1.94,0.25-2.15,0.35c-0.21,0.09-0.03,0.19,0.2,0.3c0.47,0.22,1.18,0.49-0.67,0.9c-1.14-0.71-2.12-0.62-3.22-0.52 c-0.54,0.06-1.09,0.12-1.69,0.08c-0.59-0.04-1.19-0.15-1.84-0.49c-1.65,0.05-2.26,0.49-1.94,1.09c0.16,0.3,0.54,0.62,1.03,0.87 c0.49,0.25,1.19,0.48,1.89,0.55c-0.5,0-1.16-0.05-1.8-0.08c-0.68-0.04-1.38-0.08-2.03-0.12c-0.34-0.02-0.67-0.03-0.98-0.03 c-0.32-0.01-0.66-0.02-0.95,0c-0.59,0.02-1.07,0.11-1.37,0.31c-0.13-0.04-0.25-0.08-0.37-0.12c-0.12-0.05-0.24-0.09-0.34-0.14 c-0.21-0.09-0.38-0.17-0.51-0.24c-0.26-0.14-0.38-0.25-0.38-0.33c0-0.16,0.46-0.18,1.14-0.15c0.68,0.03,1.47,0.05,2.32,0.12 c0.43,0.04,0.81,0.05,1.18,0.07c0.37,0.02,0.72,0.05,1.03,0.09c-0.31-0.2-0.9-0.42-1.64-0.65c-0.41-0.13-0.85-0.28-1.33-0.43 c-0.48-0.15-0.96-0.3-1.55-0.51c-0.56-0.2-1.14-0.41-1.71-0.61c-0.62-0.24-1.27-0.51-1.87-0.77c-0.31-0.13-0.59-0.25-0.9-0.39 c-0.32-0.16-0.64-0.31-0.94-0.46c-0.61-0.3-1.17-0.59-1.66-0.83c-1.37-1.06-1.59-1.39-1.12-1.11c0.24,0.13,0.65,0.4,1.21,0.75 c0.51,0.29,1.14,0.64,1.87,1.02c0.35,0.18,0.78,0.41,1.12,0.55c0.36,0.15,0.74,0.31,1.12,0.47c0.39,0.15,0.79,0.31,1.19,0.46 c0.36,0.12,0.73,0.24,1.09,0.35c0.37,0.11,0.73,0.22,1.09,0.33c0.37,0.11,0.66,0.17,0.98,0.26c0.62,0.15,1.19,0.3,1.7,0.43 c0.23-0.26,0.18-0.49-0.07-0.71c-0.27-0.23-0.76-0.45-1.39-0.66c-1.23-0.42-3.27-1.01-5.45-1.92c-0.58-0.26-1.17-0.55-1.74-0.84 c-0.28-0.15-0.56-0.29-0.83-0.43c-0.28-0.15-0.58-0.35-0.86-0.52c-1.13-0.72-2.09-1.37-2.91-2.08c-1.58-1.34-2.28-1.91-1.38-0.66 c-0.78-0.73-1.42-1.57-1.93-2.29c-0.5-0.73-0.89-1.39-1.16-1.97c-0.53-1.18-0.72-2.04-0.77-2.66c-0.11-1.25,0.34-1.54,0.41-2.13 c-0.23-1.05-0.39-1.96-0.51-2.77c-0.09-0.83-0.16-1.58-0.18-2.21c-0.06-1.29-0.04-2.22,0-3.11c0.02-0.43,0.05-0.85,0.1-1.29 c0.05-0.42,0.11-0.85,0.2-1.33c0.09-0.48,0.21-0.94,0.37-1.5c0.16-0.5,0.36-1.12,0.61-1.69c-0.43,0.12-0.65-0.11-0.7-0.63 c-0.03-0.26-0.01-0.6,0.04-0.95c0.05-0.36,0.14-0.79,0.25-1.2c0.93-1.14,1.87-2.4,2.72-3.52c0.36-0.48,0.75-0.99,1.16-1.52 c0.34-0.46,0.7-0.94,1.06-1.43c0.36-0.49,0.73-1.01,1.12-1.51c0.4-0.49,0.81-0.98,1.23-1.46c0.42-0.48,0.86-0.94,1.31-1.38 c0.46-0.42,0.94-0.81,1.44-1.16c0.04-0.3,0.36-0.93,0.88-1.72c0.52-0.77,1.25-1.67,2.06-2.57c1.65-1.76,3.71-3.36,5.27-3.5 c1.56-2.06,2.38-2.01,2.35-3.08c1.98-0.59,3.96-3.27,5.31-3.53c-0.16,1.35-1.3,1.09-3.52,2.92c0.11,0.17,0.22,0.34,0.33,0.51 c2.08-1.07,4.07-2.52,6.43-4.16c2.36-1.61,5.07-3.45,8.54-5.11c1.18-1.28-0.3-2.14,3.01-3.7c-0.81,3.45,2.77,0.55,7.08-0.49 c2.17-1.26-0.96-0.26-0.46-1.13c2.26-0.2,3.88-1.79,2.56-2.55c3.01-0.21,9.46-3.69,9.88-1.37c2.37-1.05,3.31-0.81,6.03-2.17 c-0.1-0.29-0.19-0.57-0.29-0.87c-1.35,0.49-1.45,1-2.87,1.51c1.67-1.56-1.28,0.28-1.14-0.84c3.14-1.59,4.81-1.98,5.49-3.86 c2.82-0.91,5.47-1.39,7.53-2.59c-0.54,1.22-0.11,0.89,1.2,1.17c1.85-0.97-1.82-0.73,0.2-2.03c2.31-0.89,3.36-0.58,5.18-1.92 c0.54-0.03,0.96,0.03,1.43,0.04c0.24,0.01,0.49,0,0.78-0.03c0.26-0.02,0.72-0.14,0.8-0.14c0.35-0.08,0.11-1.42,0.81-0.59 c0.25-0.12,0.44-1.21-0.1-0.93c0.24-0.16,0.5-0.31,0.75-0.44c0.13-0.06,0.26-0.12,0.38-0.16c0.1-0.04,0.2-0.06,0.29-0.08 c0.38-0.06,0.77,0.05,1.03,0.48c0.83-0.2,1.08-0.6,1.28-0.92c0.21-0.33,0.37-0.58,1.3-0.57c1.45,0.86,1.39,0.44,2.46,1.05 c-0.43-0.56-0.62-1.03,0.18-1.32c0.24,0.51,0.92,0.47,1.92,0.91c1.44-0.05-0.41,0.38-1.04-0.27c-0.25,0.22,0.08,0.36,0.55,0.49 c0.47,0.13,1.09,0.24,1.33,0.44c-0.53,0.33-1.13-0.06-1.71-0.35l-1.47,0.51c0.41,0.23,0.81-0.01,1.22-0.11 c1.02,0.54-0.17,0.8,0.65,1.36c0.43,0.13,0.87,0.26,1.34,0.16c0.85-0.37-1.05-0.18-1.31-0.81c2.64-0.43,2.01-0.69,1.85-1.28 c1.09,0.71,2.35,0.51,2.38,1.05c-0.87,0.18-1.73-0.07-2.53,0.27c-0.33,0.12,0.16,0.33,0.34,0.51c1.05-0.01,1.62-0.13,2.14-0.28 c0.52-0.15,1-0.35,2-0.57c0.86-0.45-1.37-0.87-1.77-0.95c-0.44-0.62,2.12-0.14-0.66-0.71c-0.6-0.33,1.54-0.53,0.6-0.86 c0.68-0.11,1.85,0.33,2.27-0.2c1.48,0.32,0.48,0.47,2.11,0.5c0.52-0.39,0.91-0.78-0.51-1.11c1.69,0.31,2.54,0.16,4.15-0.65 c1.41,0.31-0.46,0.84,0.23,1.24c0.85-0.28,1.02-0.46,1.38-0.59c0.36-0.13,0.9-0.2,2.57-0.33c0.16-0.28-0.7-0.37-1.71-0.42 c-1.02-0.05-2.19-0.06-2.76-0.13c1.63-0.75-3.18-0.81-2.12-1.18c-2.17-0.04-2.96,0.45-4.19,0.7c-1.04-0.26-1.05-0.43-1.15-0.59 c-0.1-0.16-0.28-0.34-1.83-0.55c1.41,0.15,2.69,0.14,4.12,0.05c1.42-0.09,2.97-0.27,4.78-0.36c-0.44,0.24-1.51,0.22-1.88,0.47 c0.99-0.19,1.67-0.15,2.35-0.08c0.69,0.07,1.39,0.17,2.58,0.06c-0.66-0.31-2.94-0.43-3.24-0.73c-1.84,0.25-5.69,0.14-4.12-0.33 c1.32,0.02,2.81-0.05,4.33-0.09c1.51-0.04,3.05-0.02,4.24,0.24c1.17-0.44-0.82-0.48,0.28-0.9c0.56,0.08,1.09,0.17,1.66-0.02 c1.54,0.06,1.21,0.24-0.16,0.47c1.47-0.21,4.3-0.24,4.79,0.02c0.35-0.33-0.51-0.46-1.04-0.63c-0.53-0.18-0.74-0.36,0.97-0.92 c-2.33,0.04-6.67,0.55-3.2-0.02c0.13-0.17-1.54-0.02-1.17-0.22c-1.55,0.15-1.67,0.51-4.13,0.48c-0.22,0.18-1.31,0.45-2.08,0.66 c-0.77,0.21-1.22,0.39-0.31,0.51c-1.99,0.01-7.09,0.12-8.15,0.05c-1.59,0.03-1.09,0.31-2.64,0.3c0.6,0.03,1.01,0.14,0.93,0.27 c-0.09,0.16-0.85,0.31-2.6,0.23c2.17-0.25-2.05-0.28-1.4-0.43c-0.64,0-0.88,0.03-1.65,0.01c-0.52,0.1,1.26,0.17,2.61,0.26 c-0.98,0.06-3.25-0.1-4.62-0.13c0.73-0.12-2.34-0.08-1.13-0.19c-1.62-0.06-0.6,0.07-1.11,0.09c-1.67-0.1-0.62-0.1-2.01-0.16 c1.12,0.02,1.8,0.04,2.36,0.05c-0.54-0.08-4.08-0.13-4.43-0.14c1.19-0.01,2.33,0.06,2.38,0.01c1.86,0.01,1.6,0.07,2.88,0.13 c0.76-0.01,0.37-0.07,1.29-0.18c-2.55-0.02-0.87,0.1-3.37,0.05c0.28-0.04-0.49-0.05-2.31-0.02c2.05-0.02,3.41-0.1,3.93-0.2 c0.51-0.1,0.11-0.17-1.52-0.06c1.69-0.16,0.66-0.16,2.38-0.39c1.52-0.15,1.09-0.03,0.57,0.07c-0.52,0.1-1.13,0.18-0.18,0.12 c2.69-0.23,2.41-0.41,1.61-0.42c4.09-0.46,3.23-0.32,6.59-0.53c0.58-0.18-0.52-0.08-1.71,0.04c2.25-0.41,3.47-0.44,3.36-0.27 c-0.11,0.17-1.42,0.45-3.97,0.62c-1.19,0.26,0.35,0.16,1.2,0.19c1.19-0.08,1.66-0.3,0.44-0.2c0.86-0.15,1.62-0.19,2.44-0.2 c0.83-0.02,1.71,0,2.97-0.12c0.06,0.26-2.13,0.37-2.03,0.6c2.13-0.29,2.95-0.51,3.45-0.71c0.52-0.2,0.72-0.4,1.82-0.83 c0.77,0.01,1.11,0.1,1.32,0.21c0.8-0.09,1.17-0.22,2.13-0.3c-0.75-0.32-1.72-0.2,2.88-0.82c-2.84,0.55-2.2,0.59,0.75,0.07 c1.52-0.6-0.78-0.3,0.16-0.79c-4.12,0.48-5.55,1.06-7.85,1.49c-1.6,0.08-0.82-0.04,0.22-0.24c1.04-0.19,2.35-0.47,1.68-0.6 c-4.43,0.58-3.56,1.09-7.03,1.5c0.4-0.2,1.13-0.42,2.61-0.68c0.76-0.35-4.72,0.67-2.65,0.06c-3.12,0.53-2.66,0.8-6.7,1.24 c-0.18-0.09,0.8-0.37,1.63-0.67c0.82-0.29,1.47-0.58,0.51-0.42c4.24-0.96,2.6-0.63,6.68-1.51c-0.66,0.03-2.34-0.13,1.43-0.88 c0.16-0.28-0.69-0.2-1.39-0.16c-0.7,0.04-1.25,0.05-0.65-0.45c-1.75,0.62-1.86,0.8-1.78,0.93c0.09,0.13,0.37,0.22-0.53,0.54 c-1.55,0.39-1.27,0.17-1.02-0.06c0.25-0.24,0.46-0.48-1.07-0.02c2.08-0.72,3.82-1.44,6.51-2.36c0.02-0.32-1.46,0.1-1.38-0.22 c-2.05,0.58-3.39,1.53-4.28,1.46c-0.46-0.3,1.67-0.54,3.02-1.31c-0.28-0.05-1.99,0.61-3.25,1.05c0.43-0.37,0.45-0.48,0.51-0.61 c0.05-0.13,0.15-0.27,0.57-0.63c-1.68,0.68-1.75,0.79-1.73,0.87c-1.71,0.69-1.45,0.49-1.1,0.27c0.35-0.23,0.79-0.49-0.36,0.03 c0.03-0.07,0.68-0.34,1.46-0.66c0.78-0.32,1.7-0.7,2.16-0.99c-0.89,0.31-2.3,0.84-3.23,1.19c-0.93,0.34-1.38,0.48-0.53-0.02 c1.81-0.88,0.79-0.17,1.43-0.39c0.87-0.49,0.63-0.52,0.16-0.42c-0.47,0.1-1.17,0.33-1.35,0.38c-1.85,0.96,0.06,0.26-2.86,1.64 c1.02-0.66,3.01-1.84,3.92-2.52c0.94-0.68,0.75-0.84-2.01,0.47c0.42-0.32,1.77-1.09,1.71-1.19c-0.41,0.07-2.32,1.34-2.9,1.58 c0.1-0.23,1.15-0.97,0.38-0.76c0.73-0.19,1.54-0.72,2.24-1.24c0.7-0.52,1.29-1.01,1.91-1.13c2.18-1.27,0.7-0.78,1.74-1.53 c-0.61,0.19-0.66,0.49-1.77,1.17c0.64-0.96-1.22-0.69-1.68-0.61c1.16-0.81,1.64-0.98,1.98-1.01c0.35-0.03,0.55,0.06,1.32-0.25 c0.46-0.53,0.07-0.67-0.62-0.66c-2.01,1.27-1.86,1.12-2.6,0.9c-0.01,0.62-1.48,1.97-2.82,2.26c-0.75,0.68,0.46,0.17-0.05,0.68 c-0.99,0.74-1.15,0.77-1.21,0.65c-0.06-0.11-0.05-0.36-0.56-0.19c0.46-0.34,0.95-0.67,0.78-0.74c0.88-0.66,1.46-0.67,2.55-1.56 c0.43-0.52,0.16-0.46-0.17-0.35c-0.34,0.12-0.73,0.31-0.67,0.08c0.2-0.85,0.82-0.11,1.18-0.43c1.21-1.03-1.4,0.01-3.05,0.94 c-0.18,0.31-0.38,0.62-0.2,0.68c-0.64,0.51-0.56,0.27-0.41-0.09c0.15-0.36,0.37-0.85,0.17-0.87c1.12-0.93,1.51-0.74,1.91-0.53 c0.72-0.87-0.27-0.69-0.69-0.9c-0.56,0.55-2.17,1.46-3.28,1.97c0.33-0.3,0.66-0.6,1-1.08c-0.48-0.07-0.93,0.17-1.28,0.79 c-0.07-0.39,0.07-0.97-0.79,0.1c-0.16-0.15,0.21-0.66,0.43-1.07c0.22-0.41,0.24-0.72-0.7-0.48c-0.06,0.4,0.05,0.64,0.56,0.56 c-1.08,0.45-1.86,1.27-2.95,1.33c1.16-2.25-2.54-0.87-3.89-0.34c0.09-0.57-0.21-0.61-0.69-0.53c-0.13,0.02-0.26,0.04-0.39,0.06 c-0.24,0.04-0.47,0.08-0.69,0.11c-0.43,0.05-0.77,0.05-0.92-0.07c0.27-0.1,0.55-0.19,0.82-0.27l0.78-0.22 c0.3-0.09,0.6-0.17,0.84-0.21c0.51-0.09,1.01-0.11,1.49-0.15c0.97-0.08,1.81-0.18,2.79-0.89c-0.13,0.27-0.42,0.37-0.49,0.7 c0.87-0.14,1.73-0.25,2.59-0.37c-0.33-0.29-0.51-0.4-0.76-0.47c-0.25-0.07-0.56-0.1-1.25-0.19c0.22-0.46,0.97-0.41,1.53-0.54 c0.22-0.73-1.51,0.09-2.1,0.01c-0.86,0.01-0.09,1.43-1.24,1.13c-0.04-0.5,0.41-0.6,0.49-1.01c-1.37-0.23-0.8,0.98-1.88,0.92 c0.92-1-0.42-0.47-0.71,0.11c-0.21-0.11-0.2-0.29-0.29-0.45c-0.1-0.16-0.25-0.3-0.93-0.26c-0.61,0.23,0.07,0.53,0.47,0.53 c-0.01,0.15-0.14,0.22-0.37,0.24c-0.11,0.01-0.24,0.01-0.37-0.01c-0.15-0.01-0.43-0.01-0.62-0.03c-0.83-0.08-1.38-0.36-0.33-0.81 c-3.2,0.92-5.8,1.15-8.04,1.5c-2.23,0.39-4.11,0.87-5.85,2.23c-0.18-0.52,0.8-0.83,0.54-1.36c-0.64,1.04-4.94,1.31-6.78,0.55 c0.93,0.13,2.66-0.26,4.48-0.68c0.38-1.25-3.96,0.63-3.21-0.87c1.58,0.49,4.48-0.26,4.35-1.55c2.55,0.02,2.41,0.09,6.06-0.37 c-0.75-0.39-2.67,0-3.84-0.11c0.53-0.77,3.18-1.2,4.32-1.84c-1.13-0.24-1.26-0.95,1.36-1.19c0.04-0.68-2.67,0.36-3.78,0.44 c-1.9,0.48,1.1,0.3,0.18,1.2c-2.03,0.71-3.56,1.51-5.79,2.18c0.59-1.57,2.3-2.14,5.05-2.02c-1-0.88-3.07-1.07-6.93-0.07 c2.34-0.02,1.01,0.56-0.6,0.94c-1.61,0.37-3.51,0.61-2.37-0.27c-0.74,0.17-1.48,0.35-2.23,0.52c-1.52,0.54,1.26,0.64-1.43,0.65 c-1.02,0.35,0.03,0.55,0.84,0.43c0.46,0.75-2.71,0.94-2.8,1.59c-0.54-0.04-1.34-0.89-0.32-1.79c-3.21,0.61-0.8,1.03-2.06,1.42 c-1.52,0.04-2.16-0.45-5.39,0.12c0.99,0.88,4.96-0.4,4.87,1.26c-1.43-0.78-5.05,0.01-5.67-1.36c-3.52,1.44-2.92,0.25-5.91,1.54 c-0.64,1.72,2.89,0.41,3.38,1.31c-1.3,0.64-2.65-0.26-2.94,0.77c-0.69-1.07-2.53-2.15-6.38-0.73c0.1-0.04,1.03,0.87,0.13,0.6 c-0.99-0.29-2.4,0.07-3.98,0.56c-1.57,0.5-3.3,1.17-4.95,1.42c1.03-1.3,3.31-1.43,5.79-2.04c0.78-0.29,0.37-0.73,1.34-1.01 c-3.14,0.26-7.44,1.92-9.53,2.83c-0.94-0.27,1.46-1.18,4.36-2.05c1.44-0.45,3.02-0.85,4.36-1.14c1.34-0.3,2.45-0.51,2.95-0.55 c-0.11,0.37-1.42,0.61-1.34,1.01c1.93-0.24,4.68-0.84,5.82-1.95c-0.31-0.34-1.89,0.27-3.01,0.53c0.12-0.36,2.6-1.15,5.57-1.87 c2.97-0.74,6.41-1.54,8.43-2.14c-1.42-0.4-4.34,0.75-6.23,0.04c-1.56,1.49-4.57,1.06-7.29,2.58c0.34-1.21-2.22-0.79-3.15-0.06 c0.49,1.11,2.5-1.06,2.42,0.26c-1.86,0.42-3.94,0.61-6.21,0.96c-2.26,0.36-4.7,0.94-7.26,2.03c-0.33-0.41,0.57-0.72,0.52-1.11 c-0.33-0.33-1.91,0.32-3.02,0.6c-0.15,0.59,0.71,0.39,1.62,0.15c-0.94,0.49-1.91,0.88-2.96,1.22c-1.04,0.35-2.14,0.66-3.34,0.95 c-2.39,0.6-5.17,1.1-8.52,1.98c3.85-2.8,12.27-3.37,15.92-6.08c1.82-0.08,1.3,0.38,1.1,1.25c1.92-0.79,1.94-1.76,3.33-2.6 c1.82-0.61,2.4-0.2,3.84-0.48c-0.45,1.19-1.66,0.49-2.83,1.44c0.27,0.35,6.25-1.03,5.12-1.77c-0.57-0.55-1.07,0.68-2.29,0.33 c1.77-1.26,5.4-2.31,7.11-3.58c-0.54,0.71-2.18,1.53-0.43,1.7c-0.17-0.94,5.71-2.55,4.17-2.68c0.08-0.76,2.09-0.19,2.36,0.02 c2.2-0.78-0.84-0.45-0.23-1.19c1.71,0.32,3.28-1.13,4.55-0.86c-1.34-0.79-4.95,0.79-6.17,0.65c3.82-1.55,7.25-1.91,10.63-2.04 c2.22-1.79,4.26-0.92,7.44-2.36c-0.68-0.84-2.08,0.06-3.83,0.57c0.25-0.73-1.17-0.32-2.36-0.07c1.11-0.64,3.11-1.16,4.89-1.4 c1.79-0.21,3.35-0.12,3.57,0.41c2.82-1.16,6.08-2.01,9.19-2.59c1.56-0.28,3.07-0.55,4.46-0.79c1.41-0.25,2.61-0.47,3.82-0.76 c-0.84,0.64-1.98,0.94-3.52,1.24c-1.53,0.3-3.43,0.58-5.61,1.13c1.66,0.51,5.09-0.45,8.34-1.24c1.69-0.42,3.39-0.74,4.7-0.82 c1.31-0.08,2.23,0.1,2.45,0.74c1.35-0.64,1.44-1.61,2.74-2.31c-0.69,0.4,0.4,0.66,1.68,0.59c1.28-0.08,2.81-0.45,3.24-1.4 c1.02,0.06,1.22,0.48,1.06,1.08c1.93-0.23,2.7-0.87,3.67-1.46c-1-0.41-2.65,0.6-3.77-0.06c-0.07-0.52,0.92-0.71,1.97-0.9 c-0.77-0.37-2.3-0.41-4.11-0.27c-1.81,0.16-3.89,0.47-5.76,0.7c-0.56,0.07-1.11,0.13-1.62,0.18c1.54-0.31,2.78-0.68,3.43-1.18 c0-1.14-3.7-0.53-5.34-0.95c1.23-0.32,2.84-0.34,4.22-0.22c1.38,0.12,2.52,0.37,3.01,0.54c1.62-0.37-0.9-0.92,3.08-1.44 c-2.58,0-4.13-0.51-5.19-1.28c-1.98,0.76-3.93,1.02-6.08,1.24c-1.07,0.11-2.2,0.2-3.37,0.37c-0.28,0.04-0.57,0.09-0.86,0.13 c-0.27,0.05-0.54,0.09-0.81,0.14c-0.46,0.09-0.93,0.19-1.41,0.32c-0.69-0.53-2.09-1.32-1.05-1.97c3-0.41-0.44,1.28,1.77,1.52 c0.8-0.11,1.8-0.33,2.58-0.51c0.81-0.19,1.5-0.35,2.14-0.5c1.29-0.3,2.44-0.53,4.1-0.55c0.97-0.38,1.63-0.83,2.21-1.29 c0.47-0.89-5.9,1.27-4.11-0.24c2.13,0.02,3.5-0.25,4.9-0.64c1.39-0.38,2.8-0.88,4.83-1.29c0.16-0.8-1.76-0.66,0.53-1.63 c-0.93,0.1-1.1,0.31-1.22,0.51c-1.37,0.16-1.05-0.11-0.08-0.44c0.96-0.32,2.58-0.74,3.67-0.75c0.32,0.65-1.04,1.43-2.19,2.15 c-1.15,0.71-2.08,1.29-1.13,1.45c-0.08,0.29-1.33,0.35-2.62,0.5c-1.29,0.15-2.61,0.38-2.7,1c2-0.43,3.87-0.53,5.56-0.42 c1.7,0.09,3.19,0.53,4.56,0.99c1.63-0.29,1.17-0.52,0.81-0.72s-0.6-0.37,1.61-0.54c0.79-0.84-4.55,0.79-2.49-0.58 c2.12-0.64,3.47-0.52,3.93-0.11c0.47,0.4,0.08,1.09-1.01,1.55c2.21-0.05,1.1,1.25,4.75,0.56c1.37-0.4,2.21-0.94,2.79-1.58 c3.08-0.17,6.93-0.26,10.44-0.54c0.14-0.45-2.16-0.58-4.86-0.41c-2.7,0.18-5.71,0.64-6.74,1.39c-1.09-0.05-1.26-0.47-0.98-1.08 c0.73,0.09,1.44,0.17,1.94-0.27c0.38-0.31-0.15-0.27-0.75-0.2c0.28-0.39,0.94-0.46,1.37-0.33c0.43,0.14,0.63,0.45,0.08,0.77 c0.89-0.26,1.81-0.52,3.11-0.65c-1.61-0.54-3.29-1.11-2.67-2.48c2.75-0.43,2.14-0.6,1.56-0.87c-0.29-0.13-0.6-0.24-0.45-0.41 c0.15-0.17,0.75-0.4,2.22-0.65c-1.09-0.06-4.1,0.22-3.22-1.15c3.75-0.88,5.61-0.72,11.12-1.18c-1.55,0.59-3.01,0.78-4.4,0.91 c-1.38,0.13-2.69,0.2-3.82,0.51c0.69,0.23,1.6,0.59,2.83,0.73c1.23,0.14,2.78,0.07,4.93-0.57c-0.06-0.42-1.14-0.17-2.28,0.08 c-1.14,0.25-2.34,0.5-2.76,0.11c2.74-1.01,7.11-1.2,9.96-1.3c-3.45,0.65-2.69,0.86-1.79,0.99c0.91,0.13,1.98,0.17-0.62,0.48 c0.39,0.43,1.92,0.41,4.41,0.22c0.98-1.19-1.4-1.05,1.56-2.31c0.17-0.3-0.15-0.37-0.66-0.33c-0.52,0.04-1.27,0.22-1.94,0.36 c-1.33,0.3-2.38,0.53-1.02-0.33c3.54-0.42,5.31-0.5,7.17-0.68c1.86-0.18,3.72-0.35,7.12-0.67c-2.55,0.67-3.77,1.22-5.05,1.81 c-1.27,0.59-2.6,1.2-5.18,1.99c3.68-0.41,6.67-1.17,10.84-1.4c0.05-0.57-0.06-1.11,0.63-1.87c0.88-0.02,1.45,0.03,1.73,0.18 c0.24,0.18,0.28,0.4,0.23,0.64c-0.09,0.48-0.53,1.03-0.45,1.45c2.32-0.15,4.75-0.39,3.37,0.73c1.86,0.16,1.68-1.43,4.02-0.88 c-1.68,0.38-1.1,0.48-1.46,0.92c0.74,0.03,1.34-0.05,1.94-0.13c0.3-0.04,0.61-0.08,0.93-0.1c0.16-0.01,0.34-0.02,0.49-0.02 c0.14,0.01,0.29,0.03,0.45,0.06c0.3-0.19,0.33-0.34,0.21-0.46c-0.15-0.11-0.52-0.16-0.92-0.21c-0.81-0.1-1.81-0.16-2.03-0.39 c2.41-0.57,0.53-0.39,1.93-1.23c0.84-0.03,0.64,0.15,0.4,0.34c1.09-0.02,0.97-0.29,0.48-0.3c0.83-0.32,2-0.28,2.62-0.05 c0.08,0.03,0.15,0.06,0.21,0.09c0.04,0.04,0.07,0.09,0.09,0.14c0.04,0.09,0.03,0.19-0.02,0.3c-0.11,0.2-0.41,0.41-1,0.6 c3.74,0.04,0.35-0.76,2.93-1.75c1.39,0.25,2.77,0.51,4.16,0.76c-1.63,0.82-3.35,1.52-5.68,1.2c-0.46,0.35,0.88,0.42,1.62,0.58 c0.38-0.33,1.54-0.38,2.99-0.31c0.73,0.04,1.52,0.11,2.34,0.19c0.4,0.04,0.81,0.09,1.22,0.13c0.2,0.02,0.4,0.05,0.6,0.07 c0.19,0.02,0.35,0.06,0.52,0.09c-0.09,0.33,0.89,0.54-0.18,0.95c2.07,0.5,4.02,0.73,5.87,0.88c0.26-0.67-3.57-0.82-4.81-0.98 c0.28-0.27,0.48-0.53,0.31-0.76c-0.08-0.12-0.26-0.23-0.56-0.33c-0.16-0.05-0.33-0.1-0.57-0.14c-0.26-0.03-0.56-0.06-0.91-0.09 c0.64-0.31,1.35-0.5,2.13-0.58c0.72-0.07,1.42,0,2.18,0.19c0.33-0.22,0.35-0.41,0.11-0.6c-0.25-0.18-0.68-0.36-1.59-0.47 c1.29-0.55,2.71,0.58,3.96,0.73c-3.81,0.73,0.46,1.04-2.09,1.44c1.77,0.85,2.79,0,4.34,0.46c-0.82,0.3-0.08,0.44,0.78,0.61 c0.8,0.18,1.69,0.42,1.37,0.82c-0.73,0.04-0.78-0.12-0.97-0.33c-0.19-0.2-0.47-0.43-1.84-0.41c-0.02,0.22-0.04,0.43-0.64,0.67 c0.99,0.2,1.9,0.43,2.85,0.7c0.68-0.15,1.8-0.25,3.89,0.63c-0.67-0.08-1.86,0-1.06,0.41c0.59-0.19,2.55,0.17,4.11,0.01 c0.54,0.27,0.39,0.39,0.22,0.48c-0.39,0.03-0.1,0.27,0.21,0.51c-0.98-0.27-2.18-0.77-3.04-0.58c1.46,0.66,2.56,0.9,3.68,1.25 c1.1,0.41,2.28,0.87,3.57,3.02c0.09-0.04,0.1-0.25,0.06-0.54c-0.04-0.3-0.15-0.65-0.3-0.97c-0.29-0.69-0.74-1.21-1.06-1.17 c0.66-0.89,1.74,0.8,2.01,2.81c0.12,0.99,0.06,1.96-0.23,2.42c-0.21,0.33-0.48,0.36-0.89,0c0.37,0.48,0.7,1.03,0.97,1.65 c0.38,0.92,0.6,1.96,0.66,3c0.13,2.09-0.45,4.08-1.08,5.35c-0.18-0.08-0.15-0.56-0.08-1.17c0.06-0.61,0.16-1.37,0.14-1.99 c-0.75-0.01-0.96,1.44-1.46,2.61c0.33-0.21,0.47,0.34,0.51,1.09c0.04,0.75-0.03,1.71,0.04,2.4c0.42-0.16,0.74-1.33,0.98-2.23 c0.19,0.46-0.09,1.94-0.74,3.59c-0.64,1.66-1.66,3.46-2.55,4.89c1.27-1.11,2.48-2.86,3.41-5.07c0.79,0.35,0.4,1.31-0.46,2.53 c-0.85,1.22-2.19,2.69-3.03,4.12c-0.8,0.25-0.39-0.36,0.05-1.04c-1.66,1.47-2.96,3.32-4.33,4.71c-1.43,1.41-2.81,2.65-4.85,3.01 c0.69-0.59,1.37-1.17,2.05-1.76c-1.22-0.3-3.13,1.38-5.96,3.09c0.4,0.21,0.93-0.03,1.5-0.42c0.53-0.39,1.07-0.93,1.59-1.32 c-0.47,0.72-0.09,1.1,1.67,0.83c-0.35,0.46-0.87,0.91-1.34,1.35c-0.48,0.45-0.99,0.89-1.54,1.33s-1.12,0.88-1.75,1.32l-0.48,0.33 l-0.55,0.34c-0.38,0.22-0.76,0.45-1.15,0.68c2.73-1.09,3.01-0.25,4.69-0.78c0.25,0.84-3.65,1.49-5.3,3.21 c0.7-1.18,1.59-2.03-1.63,0.38c-1.4,0.7-0.91,0.28-0.04-0.39c0.88-0.67,2.2-1.59,2.65-1.92c-1.21,0.14-2.82,1.72-3.88,1.22 c1.55-0.51,1.99-1.08,2.39-1.61c0.2-0.27,0.38-0.52,0.68-0.77c0.15-0.12,0.33-0.24,0.55-0.36c0.2-0.12,0.45-0.23,0.76-0.35 c-0.87,0.26-1.58,0.55-2.18,0.87c-0.6,0.32-1.09,0.69-1.57,1.09c-0.47,0.4-0.98,0.84-1.53,1.32c-0.58,0.48-1.21,0.99-2.24,1.53 c-1.1,0.03-0.36-0.5,0.22-0.49c1.88-1.13-3.44,0.17-0.08-1.44c-0.71,0.09-1.44,0.22-2.22,0.51c-0.39,0.14-0.8,0.33-1.22,0.56 c-0.45,0.24-0.94,0.53-1.46,0.89c-0.24-0.06-0.02-0.26,0.36-0.5c0.19-0.12,0.41-0.25,0.64-0.38c0.21-0.13,0.41-0.27,0.59-0.39 c-0.35,0.02-0.75,0.17-1.17,0.38c-0.45,0.21-0.93,0.48-1.41,0.75c-0.96,0.55-1.93,1.11-2.68,1.19c0.65-0.75,1.36-1.49,1.7-2.11 c0.26-0.63,0.19-1.13-0.65-1.39c-1.82,0.83-1.29,0.98-0.83,1.16c0.48,0.18,0.84,0.38-1.32,1.28c-0.46-0.06,0.49-0.5,0.94-0.8 c-1.98-0.26-5.26,2-6.92,1.05l-2.87,1.39c6.26-1.26,12.28-2.05,6.57,0.94c0.34,0.05,0.68,0.1,1.01,0.15c2.11-0.13,2.01-1.34,3.59-2 c1.34,0.55,3.49-0.65,5.39-1.4c1,0.16-0.72,1.17-2.57,2.22c-1.33,1,1.66-0.43,0.8,0.62c3.13-0.43,3.78-2.8,6.33-2.45 c-1.38,0.82-2.53,1.55-3.5,2.23c-0.48,0.34-0.93,0.67-1.33,0.98c-0.43,0.32-0.72,0.63-1.18,0.92c-1.41,0.39-1.64,0.18-1.58-0.19 c0.01-0.09,0.05-0.19,0.09-0.29c0.02-0.1,0.03-0.21,0.05-0.32c0.03-0.21,0.03-0.4-0.09-0.52c-0.24,0.29-0.49,0.57-0.85,0.83 c-0.39,0.26-0.82,0.52-1.29,0.77c-0.94,0.5-2.02,0.97-3.19,1.44c-1.18,0.47-2.42,0.94-3.76,1.44c-1.4,0.49-2.84,1-4.29,1.59 c0.6,0.09,1.01,0.1,1.25,0.1c-0.26,0.06-0.69,0.22-1.23,0.56c-1.06,0.68,0.72,0.61,2.05,0.78c0.67,0.09,1.22,0.24,1.21,0.6 c0,0.18-0.15,0.41-0.48,0.72c-0.35,0.3-0.84,0.68-1.71,1.14c-0.78-1.32-5.4,1.26-7.99,1.81c1.7-1.12,1.76-1.9,1.44-2.6 c1.86-0.42,2.9-0.85,3.69-1.62c-0.62-0.19-0.96,0.17-1.31,0.47c-0.36,0.3-0.76,0.52-1.34,0.06c-2.04,0.96-2.85,1.72-6.11,2.92 c0.99-0.08,2.55-0.74,3.04-0.3c-0.86,0.61-1.68,1.05-2.49,1.36c-0.82,0.32-1.66,0.51-2.52,0.67c-1.73,0.32-3.59,0.49-6.05,1.16 c-1.91-0.23,1.54-1.18,3.14-1.89c-0.68-0.36-1.86,0.09-2.96,0.59c-1.1,0.5-2.12,1.06-2.39,0.87c-0.95,0.44-0.01,0.66-1.28,1.14 c0.14,0.49,1.34,0.11,2.53-0.33c0.41,0.12-0.46,0.74-1.15,1.21c-0.68,0.47-1.11,0.81,0.4,0.39c-0.34,0.62-1.37,0.87-2.39,0.94 c-1.02,0.07-2.03-0.04-2.46-0.09c-2.23,0.94-3.79,1.82-5.53,2.7c1.76-0.4,1.08,0.26,0.53,0.81c-0.55,0.55-0.95,0.98,1.58,0.03 c0.04,0.89-4.78,2.34-6.94,3.5c-1.62,0.13-1.1-0.4-0.36-1.05c0.74-0.65,1.7-1.41,1.14-1.81c-3.47,0.86-0.28,1.14-3.74,2.01 c0.5-1.26-1.82-0.4-4.31,0.6c0.16-1.45-1.42-0.71-3.61,0.48c-0.14,0.07-0.28,0.15-0.42,0.23c-0.15,0.08-0.29,0.16-0.38,0.22 c-0.22,0.13-0.44,0.27-0.66,0.4c-0.45,0.27-0.9,0.54-1.36,0.77c-0.91,0.47-1.81,0.83-2.59,0.87c-0.44,1.25,2.36-0.36,3.75-0.73 c-0.44,1.47-4.25,1.3-6.24,2.96c0.92-0.85,1.85-1.68,2.4-2.52c-0.27-0.25-1.49,0.33-1.61-0.05c-1.19,1.92-4.1,4.74-7.93,4.99 c1.52-2.24-1.47-0.99-2.78-1.19c1.91-1.02,1.96-0.31,3.61-1.1c-1.68-0.7-4.24,0.86-4.83,2.23c0.28,0.24,1.47-0.36,1.6,0.02 c2.68-0.75-4.94,1.65-1.11,1.42c-0.04,0.91-2.18,0.91-1.59-0.01c-1.63,0.67-1.86,1.34-4.05,2.01c-0.03,0.8,3.09-1.47,2.38,0 c-1.16-0.03-3.64,1.2-5.59,2.05c1.17-0.02,3.21-0.9,3.25,0.23c-1.66,0.23-3.23,0.41-5.75,1.53c0.67-1.34-1.64-0.83-4.1,0.31 c-2.47,1.14-5.07,2.91-5.25,3.83c-1.33,0.6-1.59-0.08-2.94,0.52c-0.92,0.85-0.12,1.55-0.46,2.34c-3.67,0.98-1.48-1.43-2.1-2.65 c-2.07,1.08-1.03,1.85-1.8,2.8c-0.98,0.59-2.39,1.29-2.28,1.75c-0.22-0.47-0.83-0.61-1.68-0.37c-0.83,0.27-1.93,0.92-3.06,2.06 c0.9-0.54,1.26-0.37,2.81-0.81c-0.37,0.34-0.62,0.73-0.7,1.06c0.57-0.24,1.06-0.47,1.23-0.65c0.59-0.2,0.69-0.04,0.77,0.13 c-0.08,0.28,0.33,0.21,0.76,0.13c-0.07,0.28-0.58,0.49-1.28,0.66c0.16,0.34-2.36,1.42-0.27,0.89c-0.13,0.12-0.23,0.22-0.32,0.31 c1.21-0.17,2.17-0.36,3.04-0.5c1.2-0.2,2.24-0.29,3.58-0.06c1.34-0.47,1.66-1.11,3.46-1.55c-0.18-0.23-0.86-0.09-1.22,0.13 c0.96-1,3.34-1.65,6.17-2.31c3.06-0.69,6.63-1.36,9.37-2.25c0.23-0.83,0.59-1.61,2.82-1.18c1.04-0.46-0.38-0.29-0.21-0.89 c1.73-0.43,1.6,0.61,3.84-0.24c-0.15,0.77-3.55,1.23-5,1.85c0.93,0.44,4.58-1.27,6.6-1.71c0.24-0.9-0.56-0.97-2.4-0.21 c0.17-1.05,4.1-1.76,5.6-2.71c-1.41,1.14,0.35,0.58,2.34-0.1c-1.16,1.49,1.4,0.64,3.31,0.55c-0.23-0.51,0.09-2.68,4.04-2.86 c-0.31-0.47-1.45-0.27-3.09,0.34c0.1-0.38,1.41-0.66,1.32-1.05c0.98,0.05,1.56,0.42,3.85-0.58c-0.3,0.56-0.97,1.08-1.99,1.58 c0.74,0.24,2.49-0.32,3.85-0.57c-0.17-1.21-1.11,0.45-2.37,0.11c1.69-0.94,2.54-1.59,1.18-1.65c0.1-0.38,1.42-0.67,1.33-1.06 c2.57-0.42,2.18,2.51-3.03,3.82c0.71,0.15,1.17,0.48,1.11,1.25c1.44-1.43,0.99-2.08,5.04-2.22c1.3-1,0.45-0.73,2.9-1.22 c-0.16-0.25-0.54-1.97-1.33-2.13c-0.26-0.54,6.19-1.98,2.79-1.81c4.5-1.52,7.7-2.4,10.91-3.34c1.6-0.48,3.22-0.96,5.02-1.54 c0.9-0.29,1.84-0.61,2.86-0.96c1.02-0.34,2.11-0.72,3.29-1.15c-0.06,1.26-3.87,2.1-5.91,3.17c0.46,0.13,0.91,0.26,0.97,0.68 c0.64-0.42,1.66-0.81,3.02-1.14c-1.57,1.07,0.88,0.79-0.47,1.7c1.04-0.28,2.07-0.55,3.1-0.82c-3.14,0.27,1.67-2.32-2.03-1.98 c0.25-0.27,1.76-0.71,3.15-0.93c1.4-0.22,2.7-0.19,2.49,0.41c6.15-2.34,10.37-2.95,14.01-5.38c-1.36,1.57,4.7,0.07,8.36-0.22 c-2.9,0.03,2.25-0.23,1.46-1.84c0.24,0.37,1.87,0.33,3.38,0.13c1.5-0.21,2.84-0.66,2.44-1.28l1.96-0.27 c0.84-0.11,1.77-0.19,2.65-0.28c1.78-0.17,3.57-0.34,5.35-0.51c-0.89,0.69,0.24,0.95,2.41,0.99c2.16,0.12,5.4-0.04,8.95-0.33 c-1.69-0.43-5.6-0.24-4.62-1.36c0.99-0.06,1.94-0.12,2.86-0.18c0.91-0.05,1.8-0.14,2.61-0.12c1.64-0.01,3.15-0.01,4.56-0.02 c1.41,0,2.74-0.01,4,0.02c1.22,0.09,2.38,0.17,3.54,0.25c1.15,0.09,2.28,0.18,3.44,0.27c0.57,0.06,1.18,0.08,1.74,0.17 c0.55,0.1,1.11,0.2,1.69,0.3c1.15,0.21,2.35,0.43,3.65,0.67c0.65,0.12,1.32,0.24,2.01,0.37c0.37,0.04,0.64,0.18,0.95,0.29 c0.31,0.11,0.62,0.23,0.93,0.35c2.76,0.93-1.56-1.5,2.54,0.16c0.59-0.69-0.1-1.14-1.19-1.58c-0.28-0.1-0.57-0.22-0.88-0.33 c-0.33-0.1-0.59-0.26-1.01-0.31c-0.77-0.14-1.53-0.31-2.19-0.56c-0.25-0.37,1.42-0.25,2.72-0.15c0.16,0.01,0.32,0.03,0.47,0.04 c0.13,0.03,0.24,0.06,0.35,0.08c0.21,0.05,0.37,0.07,0.45,0.07c0.15,0.01,0.03-0.15-0.74-0.45c1.94-0.22,3.59,0.86,5.01,1.72 c0.7,0.44,1.33,0.83,1.9,1.04c0.51,0.24,0.89,0.33,1.34,0.03c2.34,1.23-0.37,1.27,1.19,2.28c-0.86,0.31-1.71-1.57-3-0.93 c1,0.94,2.02,1.49,3.24,2.13c0.31,0.16,0.62,0.32,0.95,0.49c0.33,0.18,0.7,0.35,1,0.58c0.64,0.44,1.33,0.98,2.06,1.69 c0.39-0.65,1.46-0.57,2.81,0.18c1.36,0.75,3.03,2.21,4.55,4.53c0.75,1.15,1.45,2.49,1.94,3.83c0.25,0.67,0.47,1.32,0.63,1.96 c0.16,0.64,0.26,1.25,0.36,1.82c0.22,1.13,0.25,2.16,0.24,3.04c-0.02,0.89-0.11,1.65-0.24,2.28c-0.23,2.11,1.33,0.33,0.78,3.01 c0.33-0.96,0.5-2.03,0.52-3.17c0.04-1.14-0.07-2.36-0.32-3.75c-0.11-0.7-0.33-1.42-0.53-2.22c-0.2-0.8-0.46-1.66-0.81-2.55 c-0.66-1.79-1.65-3.73-2.7-5.39c1.12-0.24,5.4,7.38,1.7,0.5c1.14,1.76,2.12,3.87,2.77,5.81c0.3,0.98,0.56,1.91,0.8,2.79 c0.2,0.89,0.36,1.75,0.48,2.6c0.24,1.68,0.32,3.37,0.26,5.19c-0.07,1.81-0.28,3.72-0.78,5.8c-0.49,2.07-1.24,4.31-2.37,6.72 c-1.12,2.41-2.78,5.03-4.81,7.73c-2.02,2.7-4.43,5.49-7.08,8.23c-1.61,1.7-3.29,3.36-4.87,5.02c0.62-0.16,1.26-0.35,1.95-0.57 c1.79-0.58,3.87-1.37,5.85-2.09c4-1.45,7.96-2.84,11.27-2.92c0.54-0.78,3.04-1.26,2.68-2.19c1.47-0.36,2.94-0.71,4.41-1.06 c-0.09,0.67-3.24,0.86-2.77,1.61c0.75,0.48,8.4-1.85,9.84-0.84c-3.63,1.27-4.39,1.14-5.67,2.64c-3.7-0.75-6.86,2.76-9.48,2.89 c-0.68,0.5-2.92,2.21-1.16,2.14c0.83-0.25,0.36-0.4-0.05-0.3c3.24-1.32,4.84-2.93,8.49-4.19c-1.66,2.43,2.37-1.41,3.16,0.48 c5.08-1.19,5.28-1.67,9.41-3.27c1.59,0.24-0.21,0.67-0.51,1.38c1.18-0.94,2.23-0.83,2.83-1.34c3,0.88,6.92-0.6,10.35-2.37 c0.79-1.72-4.27,0.84-3.97-0.53c3.45-0.58,8.38-2.24,9.77-1.33c-0.54,0.62-1.11,0.21-2.87,1.08c-0.68-0.07-0.61-0.7-1.65-0.5 c-1.13,0.41,0.75,0.36-0.61,0.79c1.08,0.24,3.36-0.4,4.59-0.28c-1.85,0.98-4.14,0.98-6.54,2.05c-0.26,1.08,2.72-0.29,0.97,1 c2.79-1.76,7.07-3.01,9.36-3.44c0.21-0.72-1.16-0.28-2.32,0c1.41-1.24,3.51-1.46,5.07-1.69c-4.12,1.5,1.81,1.15-2.68,1.99 c0.22,0.99,4.21-0.83,5.33-0.52c-0.14,0.46-1.79,0.75-2.87,1.11c0.25,0.62,1.99,0.12,3.8-0.42c-0.74-0.56-1.01-1.11-1.85-1.38 c0.52-0.61,2.27-1.08,3.53-1.61c0.14-0.79-3.3,1.09-2.39-0.28c2.91-0.21,4.27-0.86,6.71-1.25c0.09,0.39,0.17,0.79,0.26,1.19 c-2.8-0.88-0.17-0.08-4.46,0.94c0.44,0.13,0.87,0.27,0.93,0.69c3.21-0.84,8.05-1.34,8.65-3.09c-0.42-0.37-2.36,0.41-1.73-0.76 c-1.33,0.62-0.31,1.03-2.12,0.92c3.52-2.25,4.68,0,9.17-0.75c1.71-0.51-0.45-0.73-1.6-0.17c0.28-0.55,0.91-1.06,1.19-1.61 c3.48,0.96,11.18-1.74,17.54-1.78c-0.35,0.64-1.63,0.7-1.53,0.15c-6.16,2.19-8.62,1.77-14,3.56c1,0.16,2.64-0.18,4.52-0.7 c0.12,0.49,0.23,0.99,0.35,1.48c0.6-0.37,1.22-0.74,1.46-0.43c1.93-0.86-2.38,0-0.28-1.18c0.97-0.29,1.95-0.59,2.92-0.88 c-1.78,1.35-0.13,2.46,2.84,2c-1.69,1.47-7.3,2.64-5.33,0.66c-0.55,0.33-1.12,0.66-2.12,0.94c1.34,0.45,1.03,0.68-1.33,1.03 c3.17,0.15,5.02-0.41,9.73-1.96c0.46,0.62-3.38,0.84-1.98,1.55c-3.11-0.31-5.21,1.7-9.07,1.44c-1.94,0.86,2.38,0,0.28,1.19 c0.98-0.29,1.96-0.58,2.93-0.87c0.09,0.4,0.19,0.79,0.28,1.19c-1.69,0.28-3.44-0.15-5.21,1.22c1.77-0.33,8.74-1.32,6.4-2.84 c2.23-1.03,1.89-0.07,3.07-0.29c0.64-0.13,0.66-0.32,0.66-0.51c1.87-0.43-0.5,1.06-2.06,1.25c0.05,0.78,1.34,0.59,2.48,0.52 c1.01-0.42-0.06-0.54-0.88-0.37c0.46-1,3.01-0.76,2.41,0.22c1.35-1.05,1.47-0.31,3.01-0.59c1.12-1.17,4.49-2.31,6.45-2.63 c-0.81-1.12-5.04,1.52-6,1.22c0.67-0.85,5.58-2.08,6.59-2.04c0.11-1.03-2.17-0.17-2.57-0.8c-0.28,0.87-0.05,1.2-4.17,2.24 c0.06-0.66,1.81-1.19,2.71-1.79c-0.65-0.66-3.23,0.21-3.35-0.87c0.71-0.21,0.65,0.19,0.87,0.37c1.32-0.37,1.45-0.84,2.85-1.2 c-1.36,1.6,3.63,0.77,5.7,0.77c0.05,0.29-0.83,0.51-1.38,0.75c0.25,0.63,3.13-0.85,4.46-1.08c-3.38,2.04-9.61,4.04-12.07,5.35 c0.19,0.2,0.8,0.07,0.87,0.36c1.01-0.68,2.91-1.29,3.45-2.02c0.79,0.44,0.43,1.43,2.71,1.39c1.52-0.57,4.16-2.21,3.81-0.56 c1.52-0.66,3.74-2.27,4.4-1.39c0.93-0.51,1.2-1.07,1.16-1.65c0.68,0.28,2.43-0.3,2.5,0.48c-0.73,0.23-1.46,0.47-2.19,0.7 c1.24,0.95,2.99-0.99,5.12-1.65C350.16,118.03,349.41,118.83,347.22,119.54z M245.51,110.47l-0.49,1.02l-0.24,0.51l-0.29,0.53 c-0.37-0.28,0.18-1.7-0.15-2.05c-0.62,1.33-1.35,2.71-2.22,4.13c0.07,0.37,0.37,0.38,0.76,0.15c0.4-0.23,0.91-0.7,1.33-1.23 c0.42-0.54,0.86-1.17,1.1-1.73C245.53,111.26,245.63,110.77,245.51,110.47z M244.94,107.39c-0.13,0.7-0.43,1.37-1.77,3.12 c1.06-0.76,1.41-0.99,1.81-1.43c0.19-0.22,0.39-0.48,0.66-0.87c0.26-0.39,0.55-0.89,1-1.61c0.24-0.06,0.54-0.19,0.67-0.96 c-0.75-0.79,0.35-3.92-1.26-0.76c0.13-0.69-0.07-0.97-0.52-0.79C245.12,105.91,245.09,106.68,244.94,107.39z M241.52,83.42 c0.38,0.57,0.37,0.86,0.34,1.09c-0.02,0.23-0.08,0.44,0.16,0.98c0.55,0.57,0.92,1.24,1.18,1.93c0.3,0.67,0.43,1.37,0.56,2 c0.25,1.26,0.29,2.28,1.02,2.71c-0.22-0.78-0.36-1.69-0.59-2.61c-0.23-0.92-0.47-1.88-0.79-2.73 C242.82,85.05,242.12,83.77,241.52,83.42z M240.86,111.61c-0.01,0.15-0.05,0.35-0.1,0.56c-0.06,0.22-0.15,0.46-0.23,0.68 c-0.31,0.87-0.51,1.48,0.86-0.37c0.05-0.36,0.19-0.81,0.44-1.35c0.12-0.27,0.26-0.55,0.41-0.84c0.12-0.28,0.25-0.56,0.37-0.84 c0.51-1.14,0.74-2.16,0.19-2.56c-0.35,1.07-0.69,1.56-1.12,2.12c-0.42,0.56-0.77,1.13-1.34,2.48 C240.75,111.19,240.87,111.3,240.86,111.61z M165.74,56.48c0.82-0.53,2.28-1.1,3.37-1.57c1.08-0.47,1.7-0.84,0.53-0.96 c-1.19,0.7-2.18,1.11-2.85,1.45c-0.34,0.17-0.59,0.33-0.75,0.5C165.85,56.06,165.74,56.25,165.74,56.48z M189.35,36.76 c-2.74,2.34-0.89-0.25-0.81-0.93c-0.67,0.77-1.29,1.22-1.91,1.66c1.19-0.3,0.25,0.69-0.6,1.43c-0.85,0.74-1.55,1.3,0.33,0.42 c-0.34-0.36,0.59-0.7,1.49-1.12C188.77,37.81,189.65,37.35,189.35,36.76z M197.54,12.9c0.39,0.6,1,1.33,1.24,2.1 c0.52,0.66,1.06,0.7,1.29,0.4c0.23-0.29,0.1-0.89-0.81-1.34c0.26,0.42,0.46,0.86,0.13,0.79c-0.56-1.12-1.85-2.4-1.59-2.67 c0.56,0.6,0.81,0.32-0.2-0.65C196.97,11.85,197.15,12.31,197.54,12.9z M191.31,15.5c0.27,0.3,0.6,0.75,0.98,1.15 c0.33,0.45,0.72,0.86,0.99,1.22c0.29,0.34,0.51,0.59,0.62,0.63c0.1,0.04,0.14-0.17-0.07-0.65c-0.22,0.01-0.4-0.03-0.72-0.61 c1.82,1.03,0.67-0.95,0.09-2.28c-0.69-0.06-0.45,0.33-0.27,0.81c0.21,0.45,0.37,0.94-0.28,0.82 C192.02,15.68,190.54,14.46,191.31,15.5z M190.92,16.32c0.18,0.19,0.36,0.38,0.55,0.57l0.49,0.63c0.17,0.2,0.32,0.42,0.46,0.64 c0.15,0.22,0.29,0.43,0.41,0.65c0.53,0.86,0.91,1.69,1.27,2.24c-0.3-0.87-0.74-2.39-1.41-3.44 C192.04,16.56,191.29,15.93,190.92,16.32z M190.88,39.93c0.99-0.3,1.94-0.34,2.95-1.09c0.83-1.79,3.72-4,4.77-7.48 c-1.26,0.6-0.89-0.53-1.68-0.42c-0.78,1.56-0.54,1.61-0.1,1.49c0.43-0.12,1-0.44,0.78,0.26c-0.93,0.78-1.31,0.82-1.37,0.15 c-0.87,1.44-1.89,2.95-2.3,3.69c-0.42,0.72-0.13,0.8,1.4-0.81c-0.39,1.09-1.01,1.72-1.78,2.32 C192.78,38.64,191.87,39.17,190.88,39.93z M187.75,9.08c1.02,0.24,2.43,0.48,2.99,0.32c-1.16-0.49-2.3-0.85-3.46-1.13 C186.15,8.54,186.73,8.85,187.75,9.08z M182.55,10.87c1.45,0.24,1.31,1.05,3.12,0.92c-0.82-0.48,0.07-0.25,1.21,0.16 c1.16,0.4,2.54,1.13,2.74,0.91c-1.18-0.9-2.47-1.27-3.73-1.53C184.78,11.11,183.64,11,182.55,10.87z M179.91,45.2 c1.7-0.98,4.31-2.5,5.26-3.73C183.55,42.51,180.81,44.08,179.91,45.2z M171.52,13.1c-1.65-0.07,2.13-0.43,3.03-0.4 c-1.4,0.41-0.46,0.41,0.54,0.32c1-0.08,2.03-0.24,0.89-0.3c-0.71,0.08-1.42-0.04-2.32-0.12c-0.9-0.09-1.96-0.16-3.48,0.12 C171.24,12.69,168.65,13.88,171.52,13.1z M162.66,6.66c0.16,0.1,0.52,0.2,0.86,0.35c0.32,0.16,0.71,0.33,1.15,0.47 c0.89,0.27,1.96,0.41,2.93,0.19c-1.35-0.07-1.2-0.42,0.02-0.96c-1.18-0.05-1.77-0.33-2.36-0.49c-0.15-0.04-0.3-0.07-0.45-0.08 c-0.15-0.02-0.38,0.01-0.58,0.04C163.79,6.24,163.29,6.39,162.66,6.66z M157.1,9.11c0.9,0.03,2.42-0.09,1.98,0.26 c-0.53,0.03-1.05,0.07-1.31,0.32c0.53,0,1.11-0.04,1.6-0.02l1.45,0.06c-0.17-0.56,3.48-1.68,1.23-1.2 c-0.26,0.21-0.61,0.28-1.01,0.3c-0.2,0.01-0.4-0.01-0.64-0.02c-0.24-0.01-0.5-0.02-0.76-0.03C158.61,8.73,157.58,8.68,157.1,9.11z M77.98,25.21c2.3-0.48,5-0.89,4.41-1.87C79.67,23.75,78.52,24.43,77.98,25.21z M68.49,33.62c-2.59,0.49-4.03,0.59-5.88,1.76 C65.18,34.8,66.62,34.74,68.49,33.62z M72.11,32.14c0.28-1.07-1.56-0.6-0.26-1.5c-1.77,0.38-3.24,0.55-4.76,0.75 c-1.52,0.2-3.09,0.43-5.05,1c0.08,0.4,0.15,0.79,0.23,1.19c3.15-0.56,3.41-1.45,5.85-2.06c0.05,0.3,0.67,0.21,0.85,0.42 c-0.71,0.48-1.4,0.95-2.07,1.43C70.02,32.49,69.28,31.93,72.11,32.14z M76.63,31.41c-3.18,0.63-5.9,1.4-6.55,2.46 C72.28,32.04,75.82,33.6,76.63,31.41z M79.58,30.47c0.3-1.45-6.14,0.1-6.78,1.2C75.66,30.68,76.32,30.6,79.58,30.47z M84.2,30.41 c-2.36,0.55-2.44-0.06-6.07,0.68c0.2,0.42-0.09,1.16,0.94,1.04C79.04,31.25,84.23,31.29,84.2,30.41z M98.35,33.57 c0-0.31,0-0.62,0-0.93c-0.72,0.2-1.17,0.09-1.58,0.07c-0.19-0.02-0.41-0.01-0.61,0.05c-0.11,0.03-0.2,0.07-0.33,0.13 c-0.16,0.07-0.33,0.17-0.52,0.29c-0.03-0.57-0.65-0.53-1.53-0.01c0.49-1.09,0.55-0.75-0.9-1.07c0.57-0.17,1.47-0.29,1.45-0.59 c-3.07,1.14-4.24,2.12-7.37,2.03c-0.14,0.64,1.09,0.41,1.62,0.62c-0.45,0.1-0.87,0.21-0.7,0.44c0.59-0.04,1.47-0.27,1.53,0.01 c1.91-0.67,3.69-0.92,5.32-1.11c0.41-0.05,0.8-0.09,1.18-0.14c0.28-0.02,0.51-0.04,0.76-0.07c0.44-0.05,0.84-0.13,1.23-0.28 C98,33.24,97.93,33.62,98.35,33.57z M110.3,47.17c-0.24,0.14-0.09,0.25,0.97,0.29C112.19,47.3,114.27,46.9,110.3,47.17z M148.29,30.43c-0.74-0.19-0.94-0.8-1.48-1.08c-0.54-0.28-1.33-0.27-3.09,0.53c1.52-0.17,1.72,0.16,1.99,0.4 C145.97,30.55,146.34,30.72,148.29,30.43z M144.09,17.53c-0.3,0.29-1.16,0.77-0.5,0.73c1.52-0.52,1.7-0.81,1.17-0.94 c-0.53-0.12-1.76-0.08-2.95,0.06c-1.5,0.73-1.87,1.3-1.67,1.58c0.21,0.28,1.04,0.25,2.16-0.25c-1.29,0.15-1.02-0.26,0.37-1.06 C143.14,17.61,143.62,17.57,144.09,17.53z M150.66,13.71c-1.01,0.06,0.14-0.5-0.59-0.53c-0.78,0.48-2.03,0.41-3.02,0.31 c-0.99-0.1-1.7-0.21-1.35,0.23C147.92,13.47,148.43,14.56,150.66,13.71z M153.06,58.72c-0.94,0.5-1.35,0.91-0.53,1.1 c1.48-0.83,2.44-1.3,3.03-1.7c0.61-0.39,0.92-0.68,1.09-1.13C155.37,57.58,154,58.22,153.06,58.72z M151.97,56.6l2.99-1.32 C153.6,54.74,149.51,56.49,151.97,56.6z M150.03,8.36c-0.19-0.05-0.39-0.1-0.67-0.1c-0.44,0.3-0.56,0.54-0.58,0.77 c-0.03,0.24,0.06,0.45,0.1,0.65c0.09,0.4,0.02,0.75-1.46,1.2c2.68,0.15,4.46-0.48,5.91-1.39c-0.9-0.13-1.42-0.36-1.95-0.6 c-0.26-0.12-0.53-0.24-0.85-0.35C150.39,8.46,150.22,8.41,150.03,8.36z M143.75,4.77c0.66,0.27,2.2,0.2,3.73-0.64 c-4.26,0.78,0.71-1.11-1.95-0.81C143.3,3.87,143.1,4.49,143.75,4.77z M139.66,7.8c1.46,0.06,6.13-0.84,5.35-0.1 c-3.71,1.14,1.01,0.21,0.63,0.86c-2.77,1.56-1.46,0.21-1.86,0.15c-1.4,0.3-2.26,0.98-2.34,1.39c-0.07,0.42,0.62,0.57,2.51-0.19 c-0.63,0,1.03-0.68,2.72-1.37c1.68-0.69,3.38-1.4,2.57-1.47c-2.7,0.93,1.2-0.43-0.1-0.6c-2.41,0.39-3.77,0.44-5.06,0.54 C142.82,7.09,141.62,7.23,139.66,7.8z M137.78,35.65c-0.07,0.53,0.56,0.87,2.28,0.42c-0.51-0.41-0.16-0.77,0.21-1.15 c0.35-0.37,0.7-0.76-0.03-1.05C138.66,34.39,137.87,35.12,137.78,35.65z M137.99,31.72c-1.76,0.49-1.85,0.28-1.95,0.08 c-0.09-0.21-0.19-0.41-1.74,0.07c-2.59,1.45-3.86,1.74-6.68,2.88c0.66,0.35,0.8,0.46,5.13-1.05c-3.89,1.55-4.8,2.2-4.91,2.69 c4.96-2,6.49-3.25,6.86-4.03c0.07,0.14,0.74,0.2,1.48,0.13C136.92,32.41,137.74,32.2,137.99,31.72z M123.87,40.7 c-0.44,0.38-0.86,0.82,0.82,0.39c0.48-0.44,1.74-0.94,2.91-1.46c1.18-0.52,2.28-1.06,2.31-1.52c0.41,0.29,1.83-0.51,2.04-0.92 c-1.79,0.57-3.63,1.15-5.42,1.73c-0.83,0.67,3.59-0.24,0.32,0.87c-1.45,0.03-1.96-0.08-2.12-0.36c-0.16-0.27,0.01-0.71-0.16-1.1 c-1.55,0.6-1.97,1.14-1.98,1.59c0.01,0.45,0.4,0.85,0.96,0.8C124.82,40,124.31,40.32,123.87,40.7z M121.17,34.89 c-0.47,0.31-1.34,0.78-1.1,0.78c2.82-1.67,1.42-0.32,2.08-0.46c1.94-1.11,1.75-0.41,3.43-1.24c-0.31-0.33-1.82,0.39-2.97,0.85 c0.92-0.45,1.41-0.85,1.43-1.03c0.02-0.18-0.4-0.14-1.19,0.29c-0.27,0.46-0.47,0.31-0.7,0.18c-0.24-0.13-0.53-0.25-0.87,0.25 C121.34,34.6,121.83,34.5,121.17,34.89z M127.97,34.33c-0.99,0.17-0.1-0.53,1.19-1.23c1.29-0.7,3.12-1.4,4.13-1.24 c-0.57-0.31-1.74-1-6.14,1.31C132.34,31.66,123.81,35.05,127.97,34.33z M135.97,16.91c-3.22,0.46-3.35-0.62-6.05,0.64 C131.7,17.66,133.47,18.17,135.97,16.91z M127,31.32c-1.7,0.89-2.37,1.54-2.48,1.88c-0.1,0.34,0.41,0.37,1.34,0.01 C125.88,32.76,125.85,32.3,127,31.32z M116.24,38.83c0.9,0.11,1.7,0.15,2.54,0.14c0.85-0.01,1.75-0.03,2.83-0.27 c-0.53-0.34-0.74-0.69-1.44-0.76C119.48,37.87,118.31,38.03,116.24,38.83z M122.01,37.19c3.74-1.7,0.57-0.76,4.8-2.45 c-2.17,0.78-2.74,0.81-3.05,0.69c-0.3-0.12-0.33-0.39-1.08-0.22c0.2,0.06-0.91,0.63-2.03,1.2c0.73-0.16-0.54,0.59,0.73-0.01 c-0.23,0,1.06-0.7,1.61-0.82C121.2,36.78,121.18,37.25,122.01,37.19z M135.09,8.83c0.42-0.46,1.21-0.8,2.01-1.12 c-5.21,0.82-3.1-0.68-1.05-1.72c-2.19,0.19-2.97,0.75-3.25,1.34c-0.28,0.58-0.11,1.19-0.32,1.48c-1.23,0.04-1.46-0.28-3.65,0.08 c-0.85,0.87-2.72,1.26-0.17,1.25C130.18,8.5,131.28,9.44,135.09,8.83z M119.39,14.59c3.2-0.67,0.14,1.22,3.58,0.48 c1.13-0.14,1.26-0.69,2.26-0.87c-0.92,0.96,1.69,0.56,2.2,0.95c0.47-0.89,1.28-1.08,2.35-1.27c1.07-0.18,2.38-0.39,3.92-1.25 c-2.78,0.2-5.37,0.56-6.73,1.37c0.2-0.99,1.9-1.37,3.3-1.89c-2.61,0.69-3.74-0.26-4.52,0.51c0.04,1.06-0.62,0.02-2.46-0.04 c-1.15,0.61-0.56,0.86-0.05,1.03c0.51,0.17,0.97,0.26-0.34,0.55c-0.23-0.02-0.91-0.13-1.65-0.13 C120.52,14.02,119.73,14.17,119.39,14.59z M113.36,15.13c1.06-0.69,3.42-1.37,1.78-1.78c-1.43,0.25-3.42,0.36-3.9,0.85 C113.87,13.7,111.55,15.3,113.36,15.13z M123.26,16.55c-1.3,0.19-2.77,0.3-2.94,0.97c3.54-0.77,6.81-1.05,6.91,0.04 c-0.96,0.11-0.65-0.3-1.99-0.05c-1.82,1.23,1.88,0.22,3.17,0.2c0.34-1.26,2.79-1.25,3.71-2.19c-0.57-0.3-1.48-0.04-2.56,0.36 c-1.09,0.39-2.33,0.87-3.69,0.96c1.55-0.76-0.95-0.9-3.49-0.79c-2.53,0.09-4.95,0.49-2.92,0.66c-4.2,0.78-3.55-0.55-6.75-0.26 C110.2,18.9,119.79,16.79,123.26,16.55z M116.53,34.1c1.04-0.03,2.54-0.85,3.93-1.32c-0.29-0.19-0.61-0.6-1.28-0.71 c-0.66-0.1-1.62,0.09-2.93,1.04C118.31,32.77,117.57,33.14,116.53,34.1z M116.82,32.07c-1.04,0.4-2.04,0.18-3.07,1.29 C114.69,33.33,115.63,33.23,116.82,32.07z M122.63,18.14c-2.3,0.51-1-0.48-2.57-0.29c-0.48,0.54-2.19,0.51-2.29,1.2 c1.54-0.57,2.09-0.37,2.55-0.23C120.79,18.97,121.2,19.02,122.63,18.14z M112.63,31.2c2.58-0.72-0.49,1,0.28,0.94 c0.79-0.53,1.14-0.44,1.49-0.38c0.35,0.05,0.7,0.09,1.66-0.62c-0.99,0.2-1.68,0.2-1.88,0.03c-0.19-0.17,0.11-0.5,1.27-0.94 c-1.44,0.4-0.22-0.62-1.14-0.51C113.79,30.34,113.22,30.85,112.63,31.2z M108.42,35.88c-0.33-0.27-1.8,1.17-1.23,0.14 c0.53-0.58,2.87-0.85,2.38-1.56c-0.48,0.43-2.36,1.37-1.97,0.55c0.41-0.58,1.08-0.3,1.55-0.82c-1.22,0.54-1.92,0.7-2.62,0.89 c-0.69,0.19-1.37,0.4-2.29,1.01c1.29-0.52,1.79-0.11,2.14,0.22C106.76,36.64,107,36.87,108.42,35.88z M111.28,34.59 c-1.44,0.65-1.07-0.35-2.56,1.26c0.85-0.29,1.56,0.23,2.5-0.61C110.88,35.25,110.58,35.22,111.28,34.59z M111.75,33.41 c0.48,0.02,0.87,0.04,1.64-0.36c-0.09-0.28-1.05-0.2-1.95,0.01c-0.9,0.2-1.72,0.52-1.65,0.73 C110.71,33.39,111.28,33.4,111.75,33.41z M112.99,34.09c0.35-0.11,0.68-0.07,1.07-0.43c-0.81,0.25-1.62-0.25-2.43,0.57 c0.11,0.31,0.42,0.49,0.22,0.96c-0.18,0.02-0.65,0.33-0.38,0.37C112.37,34.99,112.81,34.6,112.99,34.09z M117.29,34.4 c-1.42,0.25-2.04,0.2-2.29-0.04c-0.24-0.24-0.1-0.66,0.18-1.14c-0.93,1.13-1.55,0.95-2.31,1.54 C112.73,35.73,115.46,35.26,117.29,34.4z M115.9,37.32c2.74-1.6-0.16-0.6,0.93-1.49c1.63-0.99,1.81-0.74,1.64-0.33 c-0.15,0.42-0.66,1,0.13,0.6c-0.14-0.18,0.83-0.43,1.61-0.8c-1.19,0.24-0.76-0.07-0.15-0.47c0.61-0.4,1.44-0.9,0.97-1.03 c1.44-0.32,1.21-0.01,2.24-0.46c-0.25-0.07,0.53-0.43,1.35-0.8c0-0.33-1.87,0.1,0.15-1.09c-1.37,0.44-2.68,0.87-3.95,1.32 c0.12,0.44,1.38-0.27,0.78,0.3c-1.38,0.32-0.97,0.81-2.42,1.57c-0.57,0.07-0.8-0.03-0.63-0.31c-1.59,1.46-1.38,0.67-3.65,2.34 C116.93,36.08,114.72,37.52,115.9,37.32z M115.53,38.87c0.77-0.18,1.76-0.58,0.49-0.42c0.83-0.68-0.91,0.31-0.12-0.37 C114.17,39.03,114.76,39.05,115.53,38.87z M119.35,40.26c-0.18-0.12-0.37-0.23-0.59-0.3c-1.02,0.41-2,0.8-3,1.19 c0.36,0.01,0.07,0.36,1.5-0.12c0.15-0.16-0.22-0.16,0.78-0.55C118.37,40.46,118.34,40.63,119.35,40.26z M125.49,43.41 c-2.03,0.29-2.33,0.59-3.49,0.86c-0.05-0.32,2.29-0.68,1.83-1.06c-1.22,0.24-3.2,0.72-4.49,1.07c-1.3,0.35-1.91,0.58-0.49,0.48 c0.54-0.23,1.19-0.29,2-0.32c0.82-0.04,1.79-0.06,3.08-0.31C124.11,43.89,124.79,43.66,125.49,43.41z M132.9,42.2 c-3.43,0.43-3.88,1.03-5.86,1.46c1.62,0.08,2-0.39,5.21-0.76C132.47,42.68,132.68,42.44,132.9,42.2z M134.63,38.22 c0.19,0.32-0.26,0.92,1.01,0.66c-0.15-0.53,1.36-1.02,1.16-1.57c-1.56,0.65-2.98,0.81-4.13,0.98c-1.17,0.17-2.03,0.33-2.49,0.83 c0.89-0.05,0.64,0.51,0.6,0.95c-0.03,0.45,0.18,0.78,2.27,0.49C133.36,39.62,131.33,39.59,134.63,38.22z M128.07,71.2 c0.96,0.29-0.33,0.8-1.67,1.32c-1.35,0.51-2.77,1.02-2.12,1.37c3.42-0.95,1.34,0.23,0.82,0.99c2.21-1,4.1-2.28,5.99-3.41 c1.9-1.14,3.81-2.13,6.23-2.79c-1.1-0.79,0.56-1.32,0.16-1.68c1.88-0.44,2.76,0.11,5.05-0.68c-0.35-0.26-0.59-0.52,1.03-1.08 c0.55-0.21,1.1-0.41,1.28-0.2c-0.91,0.45-0.96,0.76-1.03,1.08c3.08-1.49,0.94-1.83-0.54-1.74c1.08,0.18,0.1,0.74-1.14,1.13 c-1.26,0.39-2.77,0.57-2.7,0.1c-2.54,1.18-5.14,2.05-7.11,2.79c-1.99,0.73-3.35,1.37-3.58,2.24c1.3-0.39,2.53-1.09,3.71-1.67 c1.2-0.58,2.29-1.07,3.57-1.08c-4.73,1.85-4.56,1.58-1.8,1.67C131.18,70.94,129.93,70.8,128.07,71.2z M120.3,73.39 c1.18-0.73,2.33-1.05,3.58-1.34c1.24-0.28,2.56-0.54,3.95-1.08c0.17-0.74-1.07-0.27-2.3,0.2c-1.24,0.47-2.48,0.93-2.24,0.17 c-1.08,0.31-2.52,0.95-3.35,1.46C119.1,73.32,118.86,73.69,120.3,73.39z M113.25,76.27c-0.01,0.67-3.25,1.48-3.32,2.17 c1.99-0.63,3.46-1.58,4.67-2.29c1.22-0.71,2.18-1.19,3.44-0.97c-0.22-0.49,0.62-0.62,1.44-0.73c0.82-0.11,1.61-0.19,1.19-0.54 c-2.23,0.7-2.59-0.06-4.29,0.26c-0.17,0.47-0.83,0.96-2.36,1.5c0.2-0.27,1.65-1.84-0.51-1.11c-0.04,0.47-1.75,1-2.36,1.5 c-0.27-0.15-0.23-0.56-1.06-0.26C110.74,76.73,111.96,76.65,113.25,76.27z M101.54,82.51c-1.79,1.15-4.65,1.64-4.5,3.34 C100.22,84.95,102.19,82.56,101.54,82.51z M107.02,57.26c-0.65,0.35-1.28,0.8-1.63,0.57c0.9,1.14,2.3,0.05,3.57-0.6 C108.33,56.66,107.66,56.91,107.02,57.26z M103.6,56.21c0.13,0.61,0.58,0.31,1.05,0.07c0.4-0.21,0.82-0.36,1.23,0.43 c-0.81,0.5-1.4,0.15-2.19,0.43c0.24,0.44,0.73,0.44,1.29,0.32c0.14-0.03,0.29-0.07,0.44-0.11l0.39-0.1 c0.26-0.07,0.52-0.13,0.77-0.14c-0.82-1.29-0.93-1.38-1.53-2.34c-0.34,0.17-0.23,0.51-0.26,0.82c-0.01,0.15-0.06,0.3-0.22,0.4 C104.41,56.09,104.08,56.19,103.6,56.21z M100.03,59.1c0.87-0.39,1.31-0.4,1.78-0.45c0.11-0.01,0.22-0.02,0.35-0.04 c0.07,0,0.14,0,0.23-0.02c0.16-0.03,0.36-0.1,0.6-0.25c-0.33-0.52,0.26-0.73,0.36-1.09c-0.55,0.17-1.02,0.37-1.4,0.61l-0.08,0.05 L101.7,58c-0.1,0.05-0.2,0.1-0.29,0.16c-0.19,0.1-0.37,0.21-0.53,0.31C100.55,58.68,100.26,58.89,100.03,59.1z M98.73,60.22 c0.23,0.48,1.28,0.24,2.52-0.16c1.51-0.51,1.95-0.68,2.58-0.72c-0.24-0.48-0.28-0.9-0.11-1.25c-0.58,0.5-0.9,0.71-1.31,0.87 c-0.17,0.06-0.34,0.12-0.53,0.19c-0.24,0.08-0.5,0.17-0.8,0.27C100.48,59.63,99.74,59.88,98.73,60.22z M95.82,82.09 c0.26,0.39,0.09,1.17,1.09,0.88c0.15-0.5,3.78-2.36,1.77-1.97C98.74,81.82,97.32,81.06,95.82,82.09z M89.06,83.46 c1.92-1.04,1.97-0.32,3.64-1.12c-0.93-0.68,1.64-1.33,1.75-2C89.46,81.52,91.33,81.35,89.06,83.46z M86.39,89.51 c3.83-1.69,1.19-1.88,5.87-3.73c-0.53-0.27,0.32-1.82-1.19-1.17c-0.92,0.57,0.26,1.14-1.01,1.72c-1.04-1.07,1.15-2.11,1.33-3.15 c-3.28,0.82-1.51,1.72-3.92,2.59c-1.52-0.25,2.89-1.84,0.4-1.15C85,86.84,86.9,87.75,86.39,89.51z M37.61,120.59L37.61,120.59 L37.61,120.59L37.61,120.59z M37.33,120.74l0.01-0.01C37.35,120.73,37.35,120.73,37.33,120.74 C37.34,120.74,37.34,120.74,37.33,120.74z M37.43,120.69c0,0-0.01,0-0.01,0c0,0,0,0,0,0c0,0,0,0,0,0c-0.01,0-0.01,0.01-0.02,0.01 c0,0-0.01,0-0.01,0.01c0,0,0,0,0,0c0,0-0.01,0-0.01,0.01c0,0,0,0,0,0c0,0,0,0-0.01,0.01c0,0,0,0-0.01,0l0.01,0c0,0,0,0,0,0 c-0.01,0-0.01,0-0.01,0.01c0,0,0,0-0.01,0c-0.01,0-0.01,0.01-0.01,0.01l-0.01,0c0,0,0,0,0.01,0c0,0,0.01-0.01,0.02-0.01 c0,0,0,0,0,0c0.01,0,0.01-0.01,0.01-0.01c0,0,0,0,0,0c0,0,0,0,0,0c0,0,0,0,0,0c0,0,0,0,0.01,0c0,0,0,0-0.01,0c0,0,0,0,0.01-0.01 l0,0c0,0,0,0,0,0c0,0,0,0,0,0l0.04-0.02c-0.01,0.01-0.02,0.01-0.04,0.02c0,0,0,0,0,0C37.39,120.71,37.4,120.7,37.43,120.69z M37.43,120.69c-0.01,0-0.01,0-0.01,0C37.42,120.69,37.43,120.69,37.43,120.69C37.43,120.69,37.43,120.69,37.43,120.69z M37.47,120.64C37.47,120.64,37.47,120.64,37.47,120.64C37.47,120.64,37.47,120.64,37.47,120.64 C37.47,120.64,37.47,120.64,37.47,120.64z M37.51,120.66c-0.01,0-0.02,0.01-0.03,0.01c0,0-0.01,0-0.01,0c0.01,0,0.01,0,0.02-0.01 C37.5,120.67,37.51,120.66,37.51,120.66z M37.52,120.66C37.52,120.66,37.52,120.66,37.52,120.66 C37.52,120.66,37.52,120.66,37.52,120.66C37.52,120.66,37.52,120.66,37.52,120.66z M37.61,120.59c0.01,0,0.01,0,0.02,0c0,0,0,0,0,0 C37.62,120.58,37.61,120.59,37.61,120.59C37.61,120.59,37.61,120.59,37.61,120.59C37.61,120.59,37.61,120.59,37.61,120.59 C37.61,120.59,37.61,120.59,37.61,120.59C37.6,120.59,37.6,120.59,37.61,120.59L37.61,120.59 C37.6,120.59,37.61,120.59,37.61,120.59C37.61,120.59,37.61,120.59,37.61,120.59C37.61,120.59,37.61,120.59,37.61,120.59z M37.63,120.58L37.63,120.58L37.63,120.58L37.63,120.58z M42.03,121.73c0.02,0.01,0.05,0.02,0.07,0.03c0,0-0.01,0-0.01,0 C42.07,121.74,42.05,121.73,42.03,121.73z M41,112.96c0-0.01,0-0.02,0-0.03h0L41,112.96z M40.97,113.11c0,0,0-0.01,0-0.01 c0,0,0-0.01,0-0.01L40.97,113.11z M40.57,114.69c0.03-0.11,0.07-0.23,0.1-0.35c-0.03,0.09-0.06,0.19-0.08,0.28 C40.58,114.64,40.57,114.67,40.57,114.69z M40.32,115.57C40.32,115.56,40.33,115.56,40.32,115.57c0.01-0.02,0.01-0.04,0.02-0.06 C40.34,115.53,40.33,115.55,40.32,115.57z M39.97,116.54c0.04-0.09,0.07-0.17,0.1-0.26c0.01-0.04,0.03-0.07,0.04-0.1 C40.07,116.3,40.02,116.42,39.97,116.54z M37.97,120.54c0.03-0.01,0.06-0.02,0.1-0.02c-0.03,0-0.05,0.01-0.08,0.01 c-0.02,0-0.04,0.01-0.05,0.01c0,0,0.01,0,0.01,0c0,0-0.01,0-0.01,0c0,0,0,0,0,0c0.01,0,0.01,0,0.02,0c0,0,0,0,0,0c0,0,0,0,0,0 c0,0,0.01,0,0.01,0C37.96,120.54,37.97,120.54,37.97,120.54C37.97,120.54,37.97,120.54,37.97,120.54 C37.97,120.54,37.96,120.54,37.97,120.54C37.96,120.54,37.97,120.54,37.97,120.54z M38.13,120.59c-0.01,0-0.02,0-0.02,0 c-0.02,0-0.04,0-0.06,0c0,0,0.01,0,0.01,0C38.09,120.58,38.11,120.58,38.13,120.59z M38.31,120.49L38.31,120.49L38.31,120.49 L38.31,120.49L38.31,120.49C38.31,120.49,38.31,120.49,38.31,120.49z M38.31,120.49L38.31,120.49L38.31,120.49 C38.31,120.49,38.31,120.49,38.31,120.49z M38.51,120.63c0,0-0.01,0-0.01,0c0,0,0,0-0.01,0C38.5,120.63,38.51,120.63,38.51,120.63z M39.01,120.72c0.02,0,0.03,0.01,0.04,0.01c-0.03-0.01-0.05-0.01-0.07-0.02c-0.02,0-0.03-0.01-0.05-0.01 C38.95,120.7,38.98,120.71,39.01,120.72c-0.02,0-0.04-0.01-0.06-0.01c-0.04-0.01-0.08-0.02-0.12-0.02 c0.03,0.01,0.06,0.01,0.09,0.02c-0.11-0.02-0.21-0.04-0.3-0.05c-0.04-0.01-0.07-0.01-0.11-0.01c0.06,0.01,0.11,0.02,0.18,0.03 c0.04,0.01,0.09,0.02,0.14,0.03c0,0,0,0,0,0c0.04,0.01,0.08,0.02,0.13,0.02C38.97,120.71,38.99,120.71,39.01,120.72 C39.01,120.72,39.01,120.72,39.01,120.72z M39.35,120.8c-0.03-0.01-0.07-0.02-0.1-0.02c-0.02,0-0.04-0.01-0.06-0.01 C39.24,120.77,39.29,120.78,39.35,120.8z M39.64,120.87C39.64,120.87,39.64,120.87,39.64,120.87c-0.09-0.02-0.17-0.05-0.25-0.07 C39.47,120.83,39.56,120.85,39.64,120.87z M39.75,117.14c-0.01,0.03-0.03,0.06-0.04,0.1c0-0.01,0.01-0.01,0.01-0.02 C39.73,117.19,39.74,117.16,39.75,117.14z M40.87,121.26c-0.05-0.02-0.11-0.04-0.16-0.06c0.01,0.01,0.03,0.01,0.04,0.02 c0,0-0.01,0-0.01-0.01c0.01,0,0.02,0.01,0.04,0.01c0,0,0,0,0,0c-0.05-0.02-0.1-0.04-0.15-0.06c-0.03-0.01-0.05-0.02-0.07-0.03 c-0.01,0-0.01,0-0.02-0.01c-0.01,0-0.02,0-0.02-0.01c0,0-0.01,0-0.01,0c-0.02-0.01-0.05-0.02-0.07-0.02c0,0,0,0,0,0c0,0,0,0,0,0 c-0.01,0-0.02-0.01-0.03-0.01c0,0,0.01,0,0.01,0.01c-0.06-0.02-0.13-0.04-0.18-0.06c0.02,0.01,0.04,0.01,0.05,0.02 c-0.07-0.02-0.13-0.04-0.2-0.06c0.03,0.01,0.06,0.02,0.1,0.03c-0.01,0-0.02,0-0.02-0.01c0.01,0,0.03,0.01,0.04,0.01 c0,0,0.01,0,0.01,0c-0.03-0.01-0.07-0.02-0.1-0.03c0.02,0.01,0.04,0.01,0.05,0.02c-0.12-0.04-0.21-0.07-0.29-0.09 c0.02,0.01,0.05,0.01,0.07,0.02c-0.02-0.01-0.04-0.01-0.06-0.02c-0.02-0.01-0.03-0.01-0.05-0.01c0,0,0,0-0.01,0 c0.01,0,0.03,0.01,0.04,0.01c-0.02,0-0.03-0.01-0.05-0.01c-0.02-0.01-0.04-0.01-0.06-0.02c0.05,0.02,0.11,0.03,0.17,0.05 c-0.04-0.01-0.08-0.02-0.12-0.03c0.17,0.05,0.35,0.1,0.52,0.16C40.51,121.14,40.68,121.2,40.87,121.26z M41.19,121.39 c-0.07-0.02-0.13-0.05-0.2-0.08c-0.02-0.01-0.04-0.02-0.06-0.02c-0.02-0.01-0.03-0.01-0.05-0.02 C40.98,121.3,41.09,121.35,41.19,121.39z M43.34,122.32c-0.02-0.01-0.03-0.02-0.05-0.03l-0.06-0.03c-0.1-0.05-0.19-0.09-0.28-0.14 c0.01,0,0.02,0.01,0.03,0.01c0.05,0.02,0.1,0.05,0.14,0.07c-0.05-0.02-0.09-0.04-0.14-0.07c-0.03-0.01-0.06-0.03-0.08-0.04 c0,0,0,0,0,0c0,0,0,0,0,0l0,0c-0.04-0.02-0.09-0.04-0.13-0.06c0.01,0,0.01,0.01,0.02,0.01c-0.01,0-0.01-0.01-0.02-0.01 c-0.02-0.01-0.05-0.03-0.08-0.04c-0.01,0-0.02-0.01-0.02-0.01c-0.03-0.01-0.06-0.02-0.08-0.04c0.01,0.01,0.03,0.01,0.04,0.02 c-0.01-0.01-0.02-0.01-0.03-0.01c-0.02-0.01-0.04-0.02-0.05-0.02c0,0,0,0-0.01,0c0.01,0,0.02,0.01,0.03,0.01 c-0.16-0.07-0.31-0.14-0.45-0.19c0.03,0.01,0.06,0.02,0.09,0.04c-0.01-0.01-0.02-0.01-0.04-0.02c-0.08-0.03-0.16-0.07-0.24-0.1 c-0.02-0.01-0.03-0.01-0.05-0.02c0.01,0,0.01,0.01,0.02,0.01c-0.04-0.02-0.08-0.03-0.12-0.05c-0.01,0-0.02-0.01-0.03-0.01 c-0.01,0-0.02-0.01-0.02-0.01c0.05,0.02,0.12,0.05,0.21,0.09c0.02,0.01,0.04,0.02,0.06,0.02C42.45,121.9,42.89,122.11,43.34,122.32 z M43.38,122.34c0,0-0.01,0-0.01-0.01C43.37,122.34,43.38,122.34,43.38,122.34C43.38,122.34,43.38,122.34,43.38,122.34z M43.5,122.4c0.04,0.02,0.08,0.04,0.12,0.06c-0.03-0.01-0.05-0.03-0.08-0.04c-0.02-0.01-0.04-0.02-0.07-0.03 C43.48,122.39,43.49,122.4,43.5,122.4z M44.75,123.05c-0.03-0.02-0.07-0.04-0.1-0.05C44.69,123.01,44.72,123.02,44.75,123.05 c-0.16-0.09-0.32-0.17-0.49-0.26c-0.01,0-0.02-0.01-0.03-0.01c0.01,0,0.01,0.01,0.02,0.01c-0.01-0.01-0.03-0.01-0.04-0.02 c-0.08-0.04-0.17-0.09-0.26-0.14c-0.1-0.05-0.2-0.1-0.29-0.15c-0.04-0.02-0.08-0.04-0.13-0.06c0.33,0.16,0.67,0.34,1.01,0.52 C44.61,122.97,44.68,123.01,44.75,123.05z M48.26,110.1c-0.29-0.66-0.87-0.79-1.81,0.04c0.08,0.18,0.02,0.41-0.09,0.65 c0.59-0.15,1.25-0.36,1.77-0.58C48.18,110.17,48.22,110.13,48.26,110.1z M49.42,109.99c0.02,0.02,0.04,0.04,0.06,0.05 c0.07,0.01,0.19-0.03,0.39-0.17c1.11-1.61,0.71-0.31,0.83,0.39c0.29-0.02,0.66-0.08,1.12-0.17c-0.43-1.4,0.59-3.59-1.84-2.34 C50.34,108.03,49.31,109.66,49.42,109.99z M52.22,116.83c-0.27-0.55-1.16-0.68-2.1-0.8c-0.01,0.09-0.01,0.17,0.03,0.25 c-0.32,0.18-0.61,0.36-0.9,0.54C49.69,117.18,50.45,117.33,52.22,116.83z M64.98,97.8c-1.02,0.82-2.44,1.7-3.49,2.18 c-1.04,0.48-1.75,0.54-1.33-0.36c-0.99,0.37-1.85,1.08-2.19,1.6c-0.35,0.51-0.2,0.81,0.8,0.37c0.48-0.49,1.32-0.48,2.25-0.49 c0.93-0.01,1.95-0.04,2.91-0.58C61.85,100.9,64.49,99.12,64.98,97.8z M69.17,72.18c0.6,1.12,3.75-0.02,5.59-1.15 c-0.14-0.38-0.28-0.76-0.42-1.14C70.28,71.58,73.28,71.55,69.17,72.18z M64.84,97.53c2.17-0.54,5.29-1.27,4.9,0.09 c0.85-0.46,1.71-0.9,2.58-1.34c0.71-1.43-2.94,0.1-1.27-1.06c1.3,0.13,1.88-0.19,2.65-1.32c1.87-1.08,3.17,0.57,4.36-1.06 c-2.25,0.83,0.38-3.51-4.05-0.1c0.68-0.32,1.04,0.08,0.23,0.56c-0.38-1.31-2.4,1.12-3.31,1.65c0.81-1.16-0.76-1.5-1.69-0.16 c1.29-0.78,0.22,0.87-0.27,1.18c-0.02-0.43-0.99-0.25-2,0.14C65.98,96.5,64.96,97.12,64.84,97.53z M54.25,81.54 c2.74-1.55,3.24-2.7,4.64-3.96c0.88,0.46-1.22,1.34-0.98,1.89c2.5-1.94,6.23-2,5.43-4.18c-2.49,0.96-1.23,1.51-2.6,2.34 c-0.05-0.76-0.59-1.02-1.35-1c-3.37,1.34-2,2.04-3.2,3.11C55.04,80.41,53.62,81.15,54.25,81.54z M53.63,111.28 c-0.2,0.02-0.4,0.04-0.56,0.04c-0.17,0.17-0.34,0.35-0.52,0.53c0.81-0.15,1.64-0.32,1.89-0.13 C54.81,111.14,54.22,111.21,53.63,111.28z M54.25,110.52c0.48-0.92,2.28-1.55,4.35-2.18c-0.07-0.09-0.11-0.22-0.14-0.39 c-0.24-0.06-0.53-0.07-0.94-0.02c0.29-0.22,0.59-0.38,0.87-0.5c-0.08-0.7-0.21-1.52-1.11-1.51c-0.04,0.03-0.06,0.06-0.09,0.08 c0.03,0.14,0.05,0.28,0.08,0.42c-0.16-0.02-0.28-0.04-0.39-0.07c-0.48,0.75,0.41,1.2-0.42,2.05c-0.46,1.65,0.23-2.31-1.95-0.42 c0.67,0.68,0.24,1.46-0.72,2.57c-0.03,0.03-0.05,0.06-0.08,0.09c1.33-0.15,1.4,0.54,2.17,0.76c0.43-0.25,0.92-0.48,1.36-0.73 c0.35-0.28,0.68-0.58,0.94-0.91c-0.05,0.16-0.16,0.33-0.28,0.5c0.5-0.37,0.79-0.78,0.55-1.29 C55.72,109.24,56.53,110.17,54.25,110.52z M59.42,105.31c0.2,0.14,0.61,0.1,1.27-0.27C60.3,105.14,59.86,105.23,59.42,105.31z M59.38,110l1.58-0.38c0.07-0.04,0.12-0.07,0.19-0.11c0,0.02,0,0.04,0,0.06l2.54-0.61c-0.08-0.39-0.15-0.8-0.23-1.19 C62.39,108.56,59.5,109.04,59.38,110z M64.48,113.14c-2.2,0.51-2.11,0.09-3.85-0.32c-0.42,1.22,1.9,1.05,0.37,2.1 C62.62,114.4,63.21,113.72,64.48,113.14z M93.01,98.99c-1.29-1.21-6.84,0.97-10.52,1.62c0.85,0.95-3.33,1.4-4.91,2.08 c0.07,0.3,0.13,0.59,0.2,0.89c1.74-0.05,2.54-1.56,2.89-0.84c-0.67,0.51-1.33,1.02-1.96,1.52c2.12,0.23,2.66-1.19,4.2-1.87 c0.09,0.52,0.74,0.6,1.67,0.46c-0.07-0.41-0.5-0.54-0.94-0.67c2.03-0.37,1.32-1.03,2.76-1.47c0.77,0.44,2.04,0.52,4.57-0.45 C90.64,99.48,91.83,98.9,93.01,98.99z M99.36,96.05c-1.8,0.91-3.71,0.2-4.39,1.38c2.98-0.46,0.26,0.41-0.5,1.11 c1.01-0.22,1.5-0.02,2.99-0.62c0.03-0.38-0.34-0.8,0.51-1.12C98.52,96.56,99.41,96.34,99.36,96.05z M161.78,111.13 c-1.77,0.55-1.44-0.32-2.82-0.01c-0.1,0.47-1.08,0.77-1.26,1.22c1.13,0.43,1.66-0.77,2.17-0.19c0.08,0.54-3.8,1.78-1.16,1.83 c0.94-2.09,1.89-0.12,2.06-0.79C160.06,113.12,161.24,111.7,161.78,111.13z M189.41,102.82c-1.25,0.28-2.3,0.82-3.14,1.57 c1.13-0.28,1.22-0.28,1.96,0.02C188.63,103.88,189.02,103.35,189.41,102.82z M190.37,104.98c-0.45-0.05-1.15,0.15-1.65,0.45 c1.18,0.17,1.31,0.14,1.72,0.46C190.98,105.31,190.81,105.04,190.37,104.98z M193.75,104.49c-0.5,0.62-0.87,0.59-1.23,0.56 c-0.37-0.02-0.72-0.03-1.18,0.59c0.39,0.03,0.77,0.09,1.16,0.13C193.04,105.3,194.07,104.64,193.75,104.49z M187.17,118.95 c-0.38-0.17-0.55-0.38-0.71-0.57c-0.01,0.12-0.04,0.25-0.07,0.38c0.08-0.1-0.36,0.85-0.56,1.38c-0.12,0.3-0.23,0.59-0.32,0.86 c-0.1,0.31-0.18,0.59-0.24,0.85c-0.12,0.52-0.15,0.93-0.06,1.18c0.4-0.93,0.82-1.9,1.23-2.67l0.59-1.16L187.17,118.95z M195.86,111.01c-0.74,0.44-0.86,0.72-0.83,0.96c0.04,0.24,0.25,0.45,0.27,0.66C196.12,111.87,197.79,110.63,195.86,111.01z M198.2,106.29c0.61,0.33,1.01,0.67,1.4-0.04c-0.34,0.15-0.65,0.25-0.72-0.02c-0.02-0.3,0.59-0.6,1.19-0.91 c0.59-0.3,1.17-0.63,0.93-0.91c-0.65-0.16-1.16-0.49-1.88-0.6c-0.72-0.11-1.64,0-2.99,0.64c2-0.34,0.65,0.5,0.17,1.29 C196.79,105.68,197.6,105.93,198.2,106.29z M201.55,107.28c-0.14-0.26-0.38-0.31-0.62-0.24c-0.24,0.07-0.48,0.27-0.74,0.53 c-0.5,0.52-1.13,1.23-1.62,1.69c0.48,0.15,0.94-0.12,1.45-0.56C200.52,108.27,200.98,107.66,201.55,107.28z M214.56,138.89 c0.02-0.01,0.04-0.02,0.06-0.03c0.01-0.01,0.02-0.01,0.03-0.02C214.63,138.86,214.59,138.87,214.56,138.89z M214.92,138.73 l-0.03,0.01l0,0l-0.31,0.13c0,0,0,0,0,0c-0.01,0-0.01,0.01-0.02,0.01l0,0l0,0c0,0,0,0,0,0c-0.05,0.02-0.09,0.04-0.12,0.05 c0.01-0.01,0.03-0.01,0.06-0.02l0,0l0,0l0.01,0l0.02-0.01l0.01-0.01c0,0,0,0,0,0l0.01,0c0,0,0,0,0,0 C214.75,138.81,214.88,138.75,214.92,138.73z M215.61,138.21c-0.01,0.01-0.02,0.02-0.03,0.02c-0.1,0.09-0.22,0.17-0.35,0.25 c0.04-0.03,0.08-0.05,0.12-0.08c0.02-0.02,0.05-0.03,0.07-0.05c0.05-0.04,0.11-0.08,0.17-0.13 C215.6,138.22,215.61,138.22,215.61,138.21z M216.43,137.51c-0.03,0.03-0.07,0.06-0.1,0.09l0,0 C216.36,137.58,216.4,137.54,216.43,137.51z M217.31,138.41C217.3,138.41,217.3,138.41,217.31,138.41c-0.07,0-0.13,0-0.2,0 C217.16,138.41,217.23,138.41,217.31,138.41z M219.01,138.45c-0.03,0-0.05,0-0.08-0.01c-0.24-0.01-0.48-0.02-0.65-0.04 c-0.03,0-0.06,0-0.09,0c0.12,0.01,0.24,0.01,0.36,0.02C218.69,138.43,218.85,138.44,219.01,138.45z M219.08,134.15 c-0.07,0.11-0.13,0.21-0.2,0.32c-0.01,0.01,0.03-0.04,0.09-0.14C219.02,134.27,219.05,134.21,219.08,134.15z M219.76,132.92 c-0.02,0.04-0.04,0.08-0.06,0.13c0.01-0.02,0.02-0.04,0.03-0.06C219.74,132.96,219.75,132.94,219.76,132.92 C219.76,132.92,219.76,132.92,219.76,132.92z M219.81,132.8l0,0.01C219.81,132.81,219.81,132.8,219.81,132.8 C219.83,132.76,219.81,132.8,219.81,132.8z M220.4,131.45C220.39,131.45,220.39,131.46,220.4,131.45l0.01-0.02 C220.42,131.39,220.4,131.45,220.4,131.45z M221.08,138.69L221.08,138.69c0.01,0,0.02,0,0.03,0l0.02,0 C221.12,138.69,221.18,138.7,221.08,138.69z M221.62,138.78c-0.05-0.01-0.11-0.02-0.16-0.03c-0.09-0.01-0.17-0.03-0.25-0.04 C221.34,138.74,221.48,138.76,221.62,138.78z M222.46,138.96c-0.06-0.01-0.11-0.02-0.17-0.03c-0.01,0-0.02,0-0.03-0.01 C222.33,138.93,222.39,138.94,222.46,138.96z M222.61,138.99c0.06,0.01,0.12,0.02,0.18,0.04c-0.11-0.02-0.21-0.04-0.31-0.06 c-0.03-0.01-0.06-0.01-0.09-0.02C222.46,138.95,222.54,138.97,222.61,138.99z M223.22,139.12c-0.1-0.03-0.2-0.05-0.3-0.07 c-0.01,0-0.02-0.01-0.03-0.01c-0.01,0-0.02,0-0.03-0.01c-0.01,0-0.02,0-0.03-0.01c0.01,0,0.01,0,0.02,0.01 c-0.03-0.01-0.05-0.01-0.07-0.02c0.08,0.02,0.15,0.04,0.23,0.05c-0.01,0-0.02-0.01-0.03-0.01c0.04,0.01,0.08,0.02,0.12,0.03 C223.13,139.1,223.17,139.11,223.22,139.12z M223.82,139.29c0,0-0.01-0.01-0.02-0.01c-0.03-0.01-0.06-0.02-0.09-0.02 c0,0-0.01,0-0.01,0c-0.09-0.03-0.19-0.05-0.3-0.08c0.08,0.02,0.15,0.04,0.22,0.06c-0.09-0.03-0.18-0.04-0.27-0.07c0,0,0,0,0.01,0 c0.1,0.03,0.15,0.04,0.16,0.05c0.02,0,0.05,0.01,0.13,0.03c0.02,0.01,0.05,0.01,0.08,0.02c0.01,0,0.01,0,0.01,0 C223.77,139.27,223.8,139.28,223.82,139.29z M232.18,125.69c-0.65-0.08-0.77-0.56-0.29-1.51c-0.55,0.66-1.07,1.29-1.58,1.89 c-0.5,0.61-0.97,1.19-1.47,1.75c-0.99,1.12-2.02,2.14-3.29,3.05c0.42,0.1,0.08,0.72-0.58,1.62c0.26-0.04,0.54-0.09,0.82-0.13 C227.61,130.33,229.74,128.2,232.18,125.69z M244.46,131.24c-2.24,0.74-1.39,0.54-3.7,0.85c0.1,0.41-0.23,0.74-0.59,1.07 C242,132.59,244.64,132.14,244.46,131.24z M305.15,121.2c2.13-0.52,3.81-1.48,6.73-1.31c-0.88-2.02,3.12-0.07,3.45-1.96 c-2.4,0.63-4.09,0.03-5.12,1.5c0.3-1.27-2.95,0.16-3.27-0.64c0.41-0.12,0.78-0.48-0.06-0.3c-0.11,0.28-0.54,0.52-1.4,0.72 C305.74,119.91,305.92,120.61,305.15,121.2z M309.82,121.12c-1.42-0.18-2.06,0.97-3.73,0.76c0.18,0.82,3.83,0.76,4.67-0.08 C308.74,122.01,308.12,122.17,309.82,121.12z M295.42,122.99c3.14-0.75,5.89-0.46,9.53-2.68c-1.67-0.21-2.36,0.71-3.6,1.33 c-0.27-0.38-1.32-0.16-1.66-0.48c0.99-0.24,4.16-0.58,2.2-0.62c-3.64,1.02-4.1-0.36-6.98,0.06 C295.58,121.6,297.48,121.69,295.42,122.99z M299.59,146.1c0.01,1.57-2.35,0.54-3.75,1.02c-0.05,1.1-0.55,1.82,1.25,2.18 c-0.3-0.8,4.67-1.02,4.37-1.83C297.72,148.38,303.63,145.54,299.59,146.1z M284.6,150.12c0.16,0.34,0.36,0.65,1.62,0.2 c0.22,0.41-0.04,1.17,0.99,0.99c-0.56-0.94,4.05-1.24,4.33-2.09C288.31,149.42,287.26,149.8,284.6,150.12z M283.72,126.48 c2.55-0.58,3.22-2.17,5.82-1.88c-0.73-0.76,1.08-1.21,0.35-1.98c-0.89,0.28-1.72,0.56-1.34,0.99c-3.75,0.96-4.04,1.17-1.35,0.99 C285.52,125.15,284.11,125.76,283.72,126.48z M285.38,126.98c0.03,0.32,0.5,0.66,0.8,0.1c-0.22-0.29-0.91-0.25-1.59-0.2 c-0.4,0.88-2.19,0.64-0.8-0.11c-1.28,0.36-2.31,0.54-3.01,0.48C280.29,128.67,284.1,127.89,285.38,126.98z M295.72,150.3 c-1.54-1.8-16.13,4.17-10.46,3.1c-1.09,0.78,4.12-2.25,5.26-1.39C292.27,151.45,293.25,150.79,295.72,150.3z M305.06,142.06 c-0.05,0.61,0.99,0.42,1.01,0.98c-2.05,1.03-3.97,0.24-4.48,1.25c0.6-0.13,2.48,0.36,0.94,0.69c-1.46-0.19-3.07,0.15-4.49,1.24 c1.95-0.09,6.25-1.35,8.09-2.88c0.27,0.37,1.34,0.15,1.69,0.47c-1.93-0.05-4.63,1.65-5.79,2.57c5.04-1.88,0.47,1.34,4.62-0.66 c-0.81,1.01,1.99,0.97,0.33,1.48c-3.35-0.36-8.92,2.75-11.82,4.2c3.67-1.91,11.14-2.62,13.99-5.13c-1.39,0.35-0.68-0.87-1.75-0.76 c2.38-0.52,2.97-1.23,3.54-1.95c-2.92,0.37-1.26,1.22-3.61,1.65c1.08-0.75,0.25-1.71,2.66-2.33c0.15,0.31-0.99,0.77,0.13,0.59 c-0.09-0.78,2.63-1.49,3.66-1.36c0.19-1.54-3.99-0.26-3.98,0.32c-0.67-0.52-3.06,1.56-2.93,0.7c-0.38-0.62,2.08-0.94,2.04-1.53 C306.19,142.83,307.3,141.19,305.06,142.06z M313.89,121.84c-1.27-0.09-4.49,1.23-5.81,2C311.13,122.9,312.25,123.18,313.89,121.84 z" fill="url(#c)">/

        </path>
    </g>
</svg>