<?xml version="1.0" encoding="UTF-8" standalone="no"?><svg xmlns="http://www.w3.org/2000/svg" xmlns:xlink="http://www.w3.org/1999/xlink" fill="#000000" height="672" preserveAspectRatio="xMidYMid meet" version="1" viewBox="0.0 0.0 672.0 672.0" width="672" zoomAndPan="magnify"><g><g id="change1_1"><path d="M 114.84375 0 L 557.15625 0 C 620.320312 0 672 51.679688 672 114.84375 L 672 557.15625 C 672 620.320312 620.320312 672 557.15625 672 L 114.84375 672 C 51.679688 672 0 620.320312 0 557.15625 L 0 114.84375 C 0 51.679688 51.679688 0 114.84375 0" fill="#f8f8f8" fill-rule="evenodd"/></g><g id="change2_1"><path d="M 336 215.441406 C 344.117188 213.199219 362.4375 208.839844 387.304688 207.171875 C 413.960938 205.382812 448.289062 206.632812 486.050781 216.75 L 484.566406 222.308594 L 486.054688 216.742188 C 488.664062 217.441406 490.375 219.828125 490.324219 222.410156 L 490.324219 439.632812 C 490.324219 442.816406 487.746094 445.394531 484.566406 445.394531 C 484.007812 445.394531 483.472656 445.316406 482.964844 445.167969 C 479.535156 444.382812 446.722656 437.121094 405.769531 436.90625 C 384.210938 436.796875 360.378906 438.644531 337.40625 444.4375 L 337.410156 444.445312 C 336.347656 444.714844 335.277344 444.667969 334.304688 444.367188 C 300.085938 435.789062 263.871094 435.960938 236.117188 438.300781 C 209.117188 440.578125 190.273438 444.878906 188.828125 445.214844 L 188.828125 445.222656 L 188.753906 445.238281 L 188.753906 445.242188 L 188.710938 445.25 L 188.65625 445.261719 L 188.570312 445.28125 L 188.492188 445.296875 L 188.445312 445.304688 L 188.34375 445.320312 L 188.296875 445.328125 Z M 388.070312 218.648438 C 363.054688 220.328125 345.214844 224.742188 338.105469 226.757812 C 336.964844 227.210938 335.671875 227.300781 334.402344 226.933594 L 334.410156 226.90625 C 327.675781 224.964844 309.574219 220.367188 283.929688 218.648438 C 259.296875 216.992188 227.84375 218.039062 193.195312 226.757812 L 193.195312 432.554688 C 201.480469 430.945312 216.488281 428.398438 235.171875 426.824219 C 263.570312 424.429688 300.613281 424.253906 336 432.9375 C 359.503906 427.167969 383.796875 425.316406 405.816406 425.433594 C 438.613281 425.601562 466.335938 430.144531 478.804688 432.554688 L 478.804688 226.757812 C 444.152344 218.039062 412.703125 216.992188 388.070312 218.648438 Z M 188.199219 445.34375 L 336 215.441406 C 327.882812 213.199219 309.5625 208.839844 284.695312 207.171875 C 258.113281 205.386719 223.898438 206.628906 186.261719 216.667969 C 183.644531 217.210938 181.671875 219.527344 181.671875 222.308594 L 181.671875 439.535156 C 181.664062 440.027344 181.71875 440.53125 181.84375 441.03125 C 182.277344 442.75 183.4375 444.09375 184.910156 444.8125 L 184.929688 444.820312 L 185.019531 444.863281 L 185.058594 444.882812 L 185.132812 444.914062 L 185.191406 444.941406 L 185.257812 444.96875 L 185.324219 444.992188 L 185.363281 445.011719 L 185.460938 445.046875 L 185.496094 445.058594 L 185.578125 445.089844 L 185.644531 445.109375 L 185.71875 445.136719 L 185.757812 445.144531 L 185.855469 445.175781 L 185.886719 445.183594 L 185.992188 445.214844 L 186.039062 445.222656 L 186.109375 445.242188 L 186.210938 445.265625 L 186.253906 445.273438 L 186.316406 445.285156 L 186.394531 445.300781 L 186.496094 445.320312 L 186.519531 445.320312 L 186.628906 445.339844 L 186.667969 445.34375 C 186.972656 445.386719 187.28125 445.402344 187.59375 445.394531 L 187.605469 445.394531 L 187.652344 445.390625 L 187.671875 445.390625 L 187.726562 445.386719 L 187.757812 445.386719 L 187.871094 445.378906 L 187.902344 445.375 L 188.015625 445.363281 L 188.046875 445.363281 L 188.15625 445.351562 Z M 188.15625 445.351562 L 188.125 445.355469 Z M 188.015625 445.363281 L 187.972656 445.367188 Z M 188.25 445.335938 L 188.230469 445.339844 Z M 188.195312 445.34375 L 188.15625 445.351562 Z M 188.195312 445.34375 L 188.195312 445.34375" fill="#8d1b18"/></g><g id="change2_2"><path d="M 341.757812 221.398438 C 341.757812 218.21875 339.179688 215.640625 336 215.640625 C 332.820312 215.640625 330.238281 218.21875 330.238281 221.398438 L 330.238281 438.863281 C 330.238281 442.042969 332.820312 444.621094 336 444.621094 C 339.179688 444.621094 341.757812 442.042969 341.757812 438.863281 L 341.757812 221.398438" fill="#8d1b18"/></g><g id="change2_3"><path d="M 484.566406 230.800781 C 481.386719 230.800781 478.804688 233.378906 478.804688 236.558594 C 478.804688 239.742188 481.386719 242.320312 484.566406 242.320312 L 500.464844 242.320312 C 502.75 242.320312 504.835938 243.261719 506.347656 244.773438 C 507.859375 246.285156 508.800781 248.371094 508.800781 250.65625 L 508.800781 445.664062 C 508.800781 447.949219 507.859375 450.03125 506.347656 451.546875 C 504.835938 453.0625 502.75 454 500.464844 454 L 171.535156 454 C 169.25 454 167.167969 453.0625 165.652344 451.546875 C 164.140625 450.03125 163.199219 447.949219 163.199219 445.664062 L 163.199219 250.65625 C 163.199219 248.371094 164.140625 246.285156 165.652344 244.773438 C 167.167969 243.261719 169.25 242.320312 171.535156 242.320312 L 187.433594 242.320312 C 190.617188 242.320312 193.195312 239.742188 193.195312 236.558594 C 193.195312 233.378906 190.617188 230.800781 187.433594 230.800781 L 171.535156 230.800781 C 166.070312 230.800781 161.105469 233.03125 157.507812 236.628906 C 153.910156 240.222656 151.679688 245.191406 151.679688 250.65625 L 151.679688 445.664062 C 151.679688 451.128906 153.910156 456.097656 157.507812 459.691406 C 161.105469 463.285156 166.070312 465.519531 171.535156 465.519531 L 500.464844 465.519531 C 505.929688 465.519531 510.894531 463.285156 514.492188 459.691406 C 518.089844 456.097656 520.320312 451.128906 520.320312 445.664062 L 520.320312 250.65625 C 520.320312 245.1875 518.089844 240.222656 514.492188 236.628906 C 510.894531 233.03125 505.929688 230.800781 500.464844 230.800781 L 484.566406 230.800781" fill="#8d1b18"/></g><g id="change2_4"><path d="M 336 26.949219 C 421.339844 26.949219 498.601562 61.539062 554.53125 117.46875 C 610.460938 173.394531 645.050781 250.660156 645.050781 336 C 645.050781 421.339844 610.460938 498.605469 554.53125 554.53125 C 498.601562 610.460938 421.339844 645.050781 336 645.050781 C 250.660156 645.050781 173.394531 610.460938 117.46875 554.53125 C 61.539062 498.605469 26.949219 421.339844 26.949219 336 C 26.949219 250.660156 61.539062 173.394531 117.46875 117.46875 C 173.394531 61.539062 250.660156 26.949219 336 26.949219 Z M 543.671875 128.328125 C 490.523438 75.183594 417.101562 42.308594 336 42.308594 C 254.898438 42.308594 181.476562 75.183594 128.328125 128.328125 C 75.179688 181.476562 42.308594 254.898438 42.308594 336 C 42.308594 417.101562 75.179688 490.523438 128.328125 543.671875 C 181.476562 596.820312 254.898438 629.691406 336 629.691406 C 417.101562 629.691406 490.523438 596.820312 543.671875 543.671875 C 596.816406 490.523438 629.691406 417.101562 629.691406 336 C 629.691406 254.898438 596.816406 181.476562 543.671875 128.328125" fill="#8d1b18"/></g></g></svg>